<svg version="1.1" id="Layer_1" xmlns="http://www.w3.org/2000/svg" xmlns:xlink="http://www.w3.org/1999/xlink" x="0px" y="0px"
	 width="100%" viewBox="0 0 1080 1080" enable-background="new 0 0 1080 1080" xml:space="preserve">
<path fill="#5CE1E6" opacity="1.000000" stroke="none" 
	d="
M1080.678223,239.744995 
	C1081.000000,518.638123 1080.990723,797.276184 1081.093384,1075.914307 
	C1081.094849,1079.915527 1080.549927,1081.130493 1076.086792,1081.128662 
	C719.290039,1080.988770 362.493256,1080.990356 5.696521,1081.117188 
	C1.529630,1081.118774 0.895685,1080.140625 0.896912,1076.197510 
	C1.007994,719.400757 1.007933,362.603973 0.897574,5.807233 
	C0.896357,1.873877 1.514968,0.880679 5.691866,0.882172 
	C362.488556,1.009695 719.285278,1.011193 1076.082031,0.872237 
	C1080.532471,0.870503 1081.106812,2.066088 1081.097534,6.081278 
	C1080.956909,66.741493 1081.000000,127.402138 1081.000000,188.531342 
	C1079.879150,189.974548 1078.537354,189.818604 1077.201904,189.771729 
	C1064.879272,189.339249 1052.552368,189.603622 1040.228027,189.614380 
	C1034.434448,189.619431 1028.720703,190.866531 1022.828552,189.721069 
	C1013.730896,187.952423 1007.234985,181.966446 1005.532837,172.733154 
	C1004.053284,164.707092 1003.042725,156.596008 1001.338867,148.612595 
	C1000.731934,145.768707 1000.529663,141.884842 996.929382,141.541977 
	C993.080200,141.175400 991.841003,144.926788 990.960449,147.912628 
	C988.693481,155.599396 987.133179,163.412277 987.987732,171.531525 
	C988.787292,179.127548 985.251770,183.276016 977.564575,183.481964 
	C971.233032,183.651611 964.909058,183.600006 958.684387,185.022797 
	C955.395264,185.774567 952.261414,186.803558 949.762634,189.215668 
	C947.134888,191.752304 946.163025,194.742752 947.260193,198.302444 
	C947.407349,198.779953 947.519958,199.291519 947.789429,199.701431 
	C950.427979,203.714493 945.607178,207.541336 947.314087,211.227249 
	C948.891785,214.633926 951.657898,217.358154 950.032471,221.729843 
	C948.977844,224.566147 950.267944,227.351089 952.433044,229.448029 
	C954.924316,231.860886 955.163330,234.371948 953.918701,237.587540 
	C951.545837,243.717819 953.545044,247.530624 959.994812,249.152420 
	C970.311584,251.746567 980.229492,249.815872 989.608398,245.357285 
	C997.560669,241.576813 1005.090881,237.089935 1013.792175,234.808563 
	C1028.768921,230.881851 1043.571777,232.594162 1058.389404,235.052475 
	C1065.749756,236.273621 1073.213257,237.133652 1080.678223,239.744995 
z"/>
<path fill="#FCFDFE" opacity="1.000000" stroke="none" 
	d="
M1081.000000,239.531342 
	C1071.136719,239.685471 1061.633057,236.996460 1051.950317,235.501419 
	C1031.271973,232.308640 1011.606445,233.710098 993.300537,245.189819 
	C983.365051,251.420410 972.167297,252.905075 960.609436,250.983398 
	C951.822571,249.522461 948.781006,243.504013 953.093994,235.925980 
	C954.366333,233.690430 954.254333,232.666122 952.069153,231.200851 
	C947.936157,228.429382 946.972229,224.408966 948.774841,219.793625 
	C949.464905,218.026871 950.158142,216.622543 947.898438,215.199493 
	C943.931458,212.701294 944.291016,209.126816 946.495728,205.649597 
	C947.550781,203.985657 948.138550,202.959183 946.814148,200.899948 
	C943.071777,195.081070 944.908508,189.247864 951.248840,185.947372 
	C957.161621,182.869446 963.660645,182.400513 970.165588,182.148071 
	C972.159546,182.070679 974.162720,182.255600 976.159180,182.210022 
	C985.030518,182.007584 987.175476,179.344254 986.454163,170.492706 
	C985.756226,161.927231 987.328003,153.590515 990.101868,145.491959 
	C990.523926,144.259613 991.279419,143.089752 992.085388,142.049606 
	C995.532715,137.600662 999.358337,138.074936 1001.348938,143.360260 
	C1004.186951,150.895493 1004.800964,158.923447 1005.913635,166.808792 
	C1007.063599,174.959122 1008.598083,182.739700 1017.175232,186.514465 
	C1022.636475,188.917953 1028.390381,188.865555 1034.267578,188.644287 
	C1049.568481,188.068192 1064.883667,187.758774 1080.592285,188.919312 
	C1081.000000,205.687561 1081.000000,222.375122 1081.000000,239.531342 
z"/>
<path fill="#DAFF60" opacity="1.000000" stroke="none" 
	d="
M325.200317,833.434570 
	C277.998840,797.645386 242.631088,752.479248 218.125702,698.736145 
	C203.096115,665.774536 193.414429,631.238281 189.336594,595.307190 
	C181.829758,529.162109 191.490814,465.581512 219.406311,404.949493 
	C238.448456,363.590271 264.865997,327.517151 297.631409,296.048157 
	C306.034119,287.977936 315.022064,280.522308 324.524292,273.227173 
	C327.085144,274.805908 326.457611,277.300385 326.479614,279.557526 
	C326.768402,309.164398 326.306549,338.772522 326.533661,368.378510 
	C326.736389,394.803070 326.494934,421.225372 326.496429,447.648682 
	C326.503601,573.530762 326.503845,699.412781 326.471588,825.294861 
	C326.470917,827.909119 327.107819,830.647095 325.200317,833.434570 
z"/>
<path fill="#DAFF60" opacity="1.000000" stroke="none" 
	d="
M756.645386,273.329865 
	C783.520813,293.453735 806.817444,317.072784 826.612427,344.160370 
	C860.226013,390.157471 882.203247,441.189606 890.595703,497.478821 
	C905.841064,599.731445 881.510376,692.047058 818.051819,773.752197 
	C800.625793,796.188965 780.566223,816.163391 757.314575,833.259033 
	C754.698792,831.241333 755.534668,828.409119 755.533813,825.839539 
	C755.494751,714.373962 755.555359,602.908325 755.480347,491.442810 
	C755.433044,421.143372 755.586487,350.844025 755.521912,280.544617 
	C755.519775,278.248627 755.029724,275.859314 756.645386,273.329865 
z"/>
<path fill="#090A0A" opacity="1.000000" stroke="none" 
	d="
M756.896240,272.512085 
	C756.911316,274.461151 756.752258,275.953094 756.752136,277.445007 
	C756.741455,461.770294 756.742493,646.095581 756.744690,830.420898 
	C756.744690,831.087341 756.770569,831.753723 756.888428,832.915649 
	C756.909668,864.221436 756.840698,895.031799 756.724731,925.841919 
	C756.711609,929.333191 756.579590,932.836975 756.256653,936.312073 
	C753.579041,965.123962 726.847534,985.316895 702.136902,985.214417 
	C594.524902,984.767944 486.908875,984.756226 379.296936,985.211853 
	C352.612244,985.324829 324.766968,961.822754 324.939453,930.681335 
	C325.116608,898.698120 324.967316,866.713074 324.889130,834.244629 
	C324.872314,832.764465 324.975311,831.768433 324.975311,830.772461 
	C324.974060,645.184509 324.965515,459.596588 324.888184,273.552063 
	C324.872437,232.782303 324.968201,192.469147 324.958252,152.156036 
	C324.954254,135.883041 331.009735,122.289322 342.862244,111.343681 
	C352.892883,102.080482 364.735352,96.972176 378.587921,96.973778 
	C486.710114,96.986298 594.832397,96.904922 702.954468,97.033058 
	C732.851135,97.068489 756.583130,121.747078 756.706665,152.605637 
	C756.866028,192.421555 756.777954,232.238449 756.896240,272.512085 
z"/>
<path fill="#D7FE63" opacity="1.000000" stroke="none" 
	d="
M964.369751,114.394806 
	C969.742920,112.994553 972.860229,114.851402 973.810303,119.636322 
	C975.027954,125.768814 968.818604,138.765884 963.311340,141.713043 
	C961.258118,142.811844 959.308533,142.585175 957.862732,140.933304 
	C953.807190,136.299591 949.936829,131.468933 948.034851,125.493599 
	C946.218140,119.786148 949.344360,115.812126 955.134460,117.322945 
	C959.232422,118.392235 961.593933,117.176765 964.369751,114.394806 
z"/>
<path fill="#CFFC6C" opacity="1.000000" stroke="none" 
	d="
M881.809631,346.990997 
	C885.095398,346.094086 887.967163,345.254333 890.850098,344.455048 
	C892.274109,344.060242 893.824219,343.379761 894.775146,345.238159 
	C895.564880,346.781525 894.460388,347.752991 893.515869,348.674072 
	C890.324707,351.785950 887.096375,354.859619 883.078247,358.720428 
	C888.423035,359.371521 891.854858,357.119751 895.568420,356.428070 
	C896.870178,356.185638 898.119324,355.672485 899.412659,355.368988 
	C900.353088,355.148315 901.002502,355.645905 901.363708,356.499512 
	C901.856201,357.663300 900.985474,357.952759 900.184753,358.172302 
	C893.612793,359.974030 887.033203,361.747742 880.458923,363.541016 
	C879.586060,363.779114 878.784363,363.733459 878.262268,362.929291 
	C877.506287,361.764618 877.863037,360.721710 878.768066,359.791290 
	C880.973083,357.524323 883.220154,355.295746 885.356445,352.965668 
	C886.207397,352.037476 887.768616,351.038391 887.020569,349.662720 
	C886.235474,348.218964 884.658264,349.163391 883.438599,349.472351 
	C880.538879,350.206787 877.661011,351.027710 874.759277,351.753448 
	C873.475220,352.074554 872.076477,352.470917 871.251831,350.894226 
	C870.557312,349.566559 871.465149,348.666321 872.265747,347.844421 
	C876.679565,343.313171 881.113586,338.801270 885.575745,334.317566 
	C886.218628,333.671600 886.959595,332.643829 888.026978,333.763306 
	C888.924500,334.704498 888.504150,335.592865 887.731018,336.370117 
	C885.148438,338.966614 882.489014,341.490295 879.981995,344.157349 
	C878.130432,346.127075 878.180603,347.436188 881.809631,346.990997 
z"/>
<path fill="#CDFC6D" opacity="1.000000" stroke="none" 
	d="
M201.608643,344.115875 
	C204.080338,347.693848 206.535141,351.029144 208.957779,354.387604 
	C209.627930,355.316620 210.446640,356.269257 209.619064,357.529480 
	C208.836227,358.721588 207.718552,358.553894 206.513290,358.381470 
	C202.266479,357.773804 198.008698,357.242706 192.803436,356.557220 
	C195.980957,360.222504 199.772415,361.219482 202.708771,363.426727 
	C203.638870,364.125916 205.635849,364.458740 204.445709,366.270081 
	C203.511566,367.691833 202.343948,366.504730 201.422440,365.971252 
	C196.394012,363.060059 191.385132,360.114197 186.406143,357.119385 
	C185.386841,356.506256 183.726456,356.201569 184.553696,354.250183 
	C185.235001,352.643005 186.412079,352.692444 187.829788,352.890167 
	C193.385956,353.665222 198.951492,354.373016 205.220642,355.198944 
	C203.138580,350.256012 199.589127,347.196289 197.086182,343.444641 
	C196.257858,342.203064 195.306900,341.043854 194.462326,339.812500 
	C193.813263,338.866241 194.046600,337.970978 194.692520,337.070404 
	C195.501755,335.942108 196.367996,336.329254 197.263702,336.854858 
	C202.704330,340.047485 208.144379,343.241119 213.575470,346.449890 
	C214.456787,346.970612 215.358429,347.640961 214.725739,348.805786 
	C214.027130,350.091919 213.012070,349.367371 212.177109,348.903015 
	C209.131149,347.209076 206.110535,345.469574 202.748123,343.643951 
	C202.069321,343.488342 201.790543,343.602081 201.608643,344.115875 
z"/>
<path fill="#CDFC6D" opacity="1.000000" stroke="none" 
	d="
M882.583740,762.732056 
	C880.098694,759.097473 877.658997,755.737244 875.236938,752.364441 
	C874.570190,751.435913 873.711548,750.556580 874.577881,749.249817 
	C875.377197,748.044067 876.514893,748.116638 877.684875,748.285339 
	C882.112854,748.923767 886.537415,749.586182 892.145447,750.414062 
	C888.350159,746.807861 884.568298,745.347717 881.263123,743.190186 
	C880.384277,742.616638 878.781433,742.140686 879.728027,740.649048 
	C880.582825,739.302124 881.789429,740.158386 882.787903,740.742859 
	C887.814453,743.685181 892.837952,746.632812 897.847778,749.603516 
	C898.943237,750.253113 900.471558,750.732239 899.606323,752.554932 
	C898.899231,754.044250 897.562500,754.098206 896.187866,753.906372 
	C891.575806,753.262756 886.970947,752.565186 882.354492,751.955383 
	C881.431030,751.833374 880.403320,751.463928 879.126648,752.650146 
	C882.250000,756.808228 885.415100,761.011963 888.567749,765.224915 
	C889.515991,766.492188 891.276978,767.644409 889.651184,769.482666 
	C888.255249,771.060913 886.894653,769.818237 885.657104,769.102844 
	C880.758911,766.271118 875.885620,763.395935 871.023132,760.503113 
	C870.082214,759.943420 868.592163,759.449890 869.483521,757.945374 
	C870.368164,756.452209 871.541321,757.513611 872.486877,758.046082 
	C875.384949,759.677734 878.241943,761.382324 881.449341,763.154114 
	C882.153748,763.462158 882.432678,763.362183 882.583740,762.732056 
z"/>
<path fill="#CDFC6D" opacity="1.000000" stroke="none" 
	d="
M902.459473,415.012573 
	C907.192200,408.828247 914.220398,405.836945 920.033813,401.246521 
	C920.684814,400.732483 921.616028,400.468445 922.214905,401.389130 
	C923.182312,402.876251 921.850159,403.495209 920.962341,404.117432 
	C917.080139,406.838135 913.152222,409.493683 908.232666,412.863434 
	C913.991638,413.536621 918.334717,412.658203 922.701782,412.262451 
	C924.248962,412.122192 926.212402,411.446075 926.856812,413.785828 
	C927.390869,415.724884 925.743530,416.337250 924.550293,417.176941 
	C920.801270,419.815521 917.045776,422.444977 913.630615,425.963531 
	C918.503479,425.583557 923.379028,425.233307 928.247620,424.804779 
	C929.635864,424.682617 931.126526,424.379578 931.253906,426.313690 
	C931.376831,428.180573 929.702454,427.688690 928.695129,427.768616 
	C922.886169,428.229736 917.073059,428.652802 911.255005,428.973877 
	C909.870483,429.050262 907.997559,429.760925 907.276794,427.906372 
	C906.442322,425.759460 908.547180,425.060760 909.770752,424.139465 
	C913.048340,421.671600 916.442261,419.358246 920.946655,416.162994 
	C915.664062,415.605743 911.831177,416.066376 907.981812,416.394379 
	C906.132812,416.551880 903.979065,417.737518 902.459473,415.012573 
z"/>
<path fill="#CEFC6C" opacity="1.000000" stroke="none" 
	d="
M153.548843,679.411987 
	C160.173294,678.548523 166.465027,677.893005 172.768036,677.374939 
	C174.273331,677.251160 176.292770,676.387878 176.972229,678.749817 
	C177.512970,680.629639 175.895340,681.368652 174.719055,682.223755 
	C171.011658,684.918884 167.269196,687.565735 163.884094,691.025452 
	C168.470444,690.692627 173.054123,690.311707 177.644775,690.055969 
	C179.050430,689.977600 180.856720,689.352417 181.609146,691.205505 
	C182.396271,693.143921 180.572815,693.790588 179.435486,694.607971 
	C174.702255,698.009888 169.946915,701.383423 165.124893,704.657227 
	C164.231583,705.263794 163.040161,707.008362 161.883438,704.996887 
	C161.051514,703.550354 162.463013,702.954102 163.377731,702.322021 
	C167.440964,699.514465 171.528519,696.742065 175.331696,693.072632 
	C170.655899,693.407166 165.980713,693.750732 161.303940,694.070862 
	C159.892075,694.167480 158.205185,695.013062 157.407730,693.021301 
	C156.502151,690.759583 158.541183,690.167297 159.788895,689.261902 
	C163.359528,686.671143 167.001343,684.178406 171.516922,681.015442 
	C166.011932,680.521790 161.818466,681.367493 157.590683,681.674377 
	C156.006165,681.789368 153.302521,683.258545 153.548843,679.411987 
z"/>
<path fill="#CEFC6C" opacity="1.000000" stroke="none" 
	d="
M897.061523,379.771942 
	C901.189514,378.988800 904.949951,378.331329 908.689697,377.571716 
	C910.228394,377.259247 911.654724,376.875519 912.449890,378.783173 
	C913.172363,380.516235 911.760986,381.094025 910.828796,381.972198 
	C907.383911,385.217163 903.139099,387.603424 899.567505,392.254242 
	C905.187134,391.236603 909.870605,390.412476 914.542542,389.527374 
	C915.890625,389.271942 917.507141,388.807159 917.743591,390.640198 
	C917.993591,392.578125 915.934021,392.319000 914.831238,392.532654 
	C909.129883,393.637390 903.393982,394.564362 897.666992,395.534790 
	C896.395569,395.750214 894.967468,396.334076 894.159668,394.714203 
	C893.393494,393.177765 894.422363,392.200684 895.444519,391.315186 
	C899.166016,388.091064 902.909607,384.892517 907.680542,380.794830 
	C901.388794,381.827911 896.494385,382.582703 891.622375,383.461700 
	C890.182983,383.721405 888.923584,383.825897 888.258423,382.286346 
	C887.665710,380.914856 888.705200,380.124603 889.584595,379.375153 
	C894.263855,375.387268 898.936768,371.391144 903.676392,367.475983 
	C904.444336,366.841614 905.395691,365.385345 906.573669,366.761230 
	C907.618530,367.981628 906.507996,368.905670 905.618652,369.645416 
	C902.297485,372.407867 898.897156,375.076660 895.617615,377.886902 
	C893.307861,379.866028 894.645630,380.109009 897.061523,379.771942 
z"/>
<path fill="#CEFC6C" opacity="1.000000" stroke="none" 
	d="
M183.964355,714.610718 
	C178.987793,714.715332 174.524887,716.257751 169.916809,716.873352 
	C168.540237,717.057312 166.440140,717.713501 166.284332,715.579956 
	C166.159332,713.868652 168.208252,714.195312 169.440414,713.971497 
	C174.678177,713.020203 179.907913,712.007324 185.171692,711.226990 
	C186.814682,710.983459 189.039536,709.891968 190.064621,712.187805 
	C191.039978,714.372192 188.657318,714.893127 187.555054,715.913635 
	C184.530502,718.713867 181.377075,721.374878 177.536041,724.737610 
	C182.750671,725.304932 186.756729,723.754517 190.864807,723.271362 
	C192.549866,723.073120 194.817368,721.957214 195.701675,724.317139 
	C196.439819,726.286987 194.271683,727.117493 193.104279,728.143433 
	C188.850266,731.881409 184.504684,735.515930 180.160645,739.150085 
	C179.361374,739.818726 178.458298,741.290283 177.334503,739.790955 
	C176.447372,738.607300 177.442169,737.668945 178.387695,736.878540 
	C181.922592,733.923279 185.437988,730.944824 189.779541,727.284729 
	C184.385757,726.544617 180.397751,728.224854 176.294479,728.746948 
	C174.756851,728.942688 172.901093,729.874939 171.788803,727.908264 
	C170.535767,725.692749 172.718124,724.988403 173.821213,724.014221 
	C177.065308,721.148987 180.449020,718.441772 183.929840,715.372681 
	C184.132782,714.890686 184.184021,714.708679 183.964355,714.610718 
z"/>
<path fill="#CCFC6E" opacity="1.000000" stroke="none" 
	d="
M195.891983,771.771240 
	C199.518143,767.444458 203.168533,763.458740 207.324448,758.921143 
	C201.852905,759.007935 197.670731,761.225098 193.197662,762.068848 
	C191.767593,762.338562 190.275314,763.204102 189.339874,761.252502 
	C188.559067,759.623413 189.792786,758.764282 190.726028,757.896057 
	C194.226929,754.638916 197.783875,751.441895 201.319870,748.222412 
	C200.988144,747.753052 200.656418,747.283691 200.324692,746.814270 
	C195.939621,748.051025 191.563004,749.319153 187.164856,750.507507 
	C185.638687,750.919861 183.465759,751.984985 182.905121,749.775085 
	C182.364227,747.642883 184.859421,748.125000 186.074005,747.769897 
	C191.487411,746.186951 196.937622,744.726990 202.391937,743.288513 
	C203.804276,742.915955 205.419601,742.374023 206.353394,744.157837 
	C207.214417,745.802673 205.750961,746.629395 204.842667,747.430298 
	C201.375290,750.487549 197.804962,753.427979 194.273102,756.412109 
	C194.747208,757.013611 195.221313,757.615112 195.695404,758.216614 
	C200.456451,757.033875 205.222321,755.869812 209.974655,754.653076 
	C210.964722,754.399536 211.958710,754.001953 212.677811,755.013550 
	C213.462662,756.117554 213.215225,757.201050 212.292236,758.157104 
	C207.676819,762.938049 203.074142,767.731323 198.443100,772.497070 
	C197.489044,773.478882 196.496689,773.951233 195.891983,771.771240 
z"/>
<path fill="#CCFC6E" opacity="1.000000" stroke="none" 
	d="
M156.831909,530.663940 
	C156.737686,542.366455 158.224960,541.218445 146.684082,540.230286 
	C145.030655,540.088745 143.270432,540.386353 141.728897,539.920593 
	C138.874146,539.057922 134.461014,542.161987 133.232925,537.478943 
	C131.569107,531.134460 135.022995,524.253845 140.070175,522.384216 
	C147.348572,519.688110 154.160904,522.892639 156.831909,530.663940 
z"/>
<path fill="#CDFC6D" opacity="1.000000" stroke="none" 
	d="
M925.843262,499.473114 
	C926.700562,499.267151 927.191284,499.175262 927.686035,499.116577 
	C933.676880,498.405945 936.101685,492.772980 932.646362,487.619690 
	C931.528564,485.952606 929.957825,486.791046 928.561401,486.872437 
	C927.072937,486.959137 925.596252,487.244080 924.113708,487.436829 
	C923.220337,487.553009 922.428284,487.401886 922.183655,486.389648 
	C921.879333,485.130127 922.622803,484.508209 923.721313,484.333099 
	C930.114502,483.313782 936.512939,482.326691 942.912842,481.350037 
	C943.758179,481.221008 944.607971,481.280426 944.893188,482.323425 
	C945.247131,483.617920 944.413452,484.133057 943.383972,484.416931 
	C942.587402,484.636597 941.755859,484.891876 940.945862,484.872986 
	C936.510742,484.769379 935.214722,486.783325 935.994812,491.092102 
	C937.182312,497.650696 936.991455,497.679413 943.862061,496.732361 
	C945.213989,496.545990 947.177063,495.345764 947.471497,497.687103 
	C947.733826,499.772797 945.557983,499.580597 944.186646,499.799683 
	C938.613281,500.690094 933.019592,501.453400 927.447083,502.349274 
	C924.770203,502.779663 923.351624,502.516388 925.843262,499.473114 
z"/>
<path fill="#CCFC6E" opacity="1.000000" stroke="none" 
	d="
M950.864258,569.281372 
	C950.789001,571.539429 950.831238,573.377014 950.579651,575.173462 
	C949.599182,582.172852 945.088745,585.544434 937.592224,584.992310 
	C930.864136,584.496704 927.146484,580.491028 927.048401,573.631592 
	C926.937744,565.890137 926.939392,565.854797 934.435425,566.209045 
	C938.898071,566.419922 943.354431,566.762512 947.813660,567.046753 
	C949.128540,567.130554 950.561646,567.017334 950.864258,569.281372 
z"/>
<path fill="#CEFC6C" opacity="1.000000" stroke="none" 
	d="
M911.600830,724.693359 
	C912.240662,730.278748 910.301453,734.137024 905.356750,736.172791 
	C900.727539,738.078735 893.696533,735.791077 890.254700,731.326477 
	C887.389832,727.610107 887.345642,723.702271 889.753296,719.755432 
	C893.796814,713.126892 904.503906,713.669617 909.692810,720.795349 
	C910.458862,721.847229 910.891418,723.141968 911.600830,724.693359 
z"/>
<path fill="#CDFC6D" opacity="1.000000" stroke="none" 
	d="
M194.563690,386.316162 
	C188.157455,393.854584 176.564331,392.032654 172.872787,383.262939 
	C170.751877,378.224457 173.385452,372.097656 178.672165,370.295807 
	C183.926117,368.505096 188.466721,370.306427 192.352646,373.854034 
	C196.063156,377.241516 197.021011,381.338074 194.563690,386.316162 
z"/>
<path fill="#CFFC6C" opacity="1.000000" stroke="none" 
	d="
M149.225510,605.267395 
	C152.122864,604.840332 154.582138,604.435730 157.053848,604.132629 
	C158.181824,603.994324 159.589661,603.774902 159.764206,605.434875 
	C159.903168,606.756348 158.732971,606.903809 157.731384,607.085999 
	C156.750290,607.264404 155.770905,607.705383 154.804611,607.668396 
	C150.420761,607.501099 149.743393,609.384338 150.630646,613.438965 
	C152.030075,619.834045 151.717789,619.868042 158.545685,619.249451 
	C159.711349,619.143799 161.476562,618.265869 161.856796,620.226868 
	C162.253708,622.273987 160.310242,622.039978 159.144043,622.239990 
	C153.579422,623.194397 148.003723,624.091309 142.415970,624.897949 
	C141.230637,625.069153 139.369568,625.629639 139.231186,623.672913 
	C139.096786,621.772400 141.060196,622.300232 142.206329,621.863953 
	C144.323853,621.057800 147.996857,622.091980 148.439682,620.038330 
	C149.060440,617.159241 147.830673,613.867493 147.321732,610.763794 
	C147.026276,608.962097 145.702408,608.941528 144.272141,609.185425 
	C142.635315,609.464539 140.997314,609.747498 139.350372,609.952942 
	C138.150787,610.102478 136.853058,610.096558 136.807816,608.439697 
	C136.769379,607.031799 138.014725,607.146851 138.966492,606.987732 
	C142.242599,606.440247 145.517273,605.884094 149.225510,605.267395 
z"/>
<path fill="#CCFC6E" opacity="1.000000" stroke="none" 
	d="
M134.050430,584.276184 
	C134.172836,582.628845 133.375504,580.717346 135.278839,580.603943 
	C137.172302,580.491089 136.726089,582.442017 136.862091,583.660461 
	C137.009491,584.980957 137.088501,586.321777 137.043793,587.648560 
	C136.911499,591.576050 139.554123,591.070862 142.132950,591.085388 
	C145.281586,591.103088 144.921188,589.240784 144.809280,587.098328 
	C144.691544,584.844666 142.653824,581.140320 145.643967,580.725464 
	C148.130325,580.380432 147.067627,584.529663 147.398270,586.580322 
	C147.878983,589.561829 148.984390,590.389893 151.930725,590.239258 
	C155.151474,590.074463 155.321243,588.355042 155.050797,585.959778 
	C154.864334,584.308350 154.755722,582.648254 154.596039,580.993591 
	C154.494278,579.938965 154.538193,578.809387 155.817719,578.693848 
	C157.164825,578.572144 157.157227,579.878479 157.415985,580.795532 
	C157.505890,581.114197 157.541672,581.448425 157.598099,581.776245 
	C159.380219,592.128906 158.591843,593.123718 148.043381,593.803162 
	C146.714691,593.888733 145.383179,593.929504 144.053665,594.003723 
	C134.620422,594.529785 134.620483,594.530884 134.050430,584.276184 
z"/>
<path fill="#CEFC6C" opacity="1.000000" stroke="none" 
	d="
M926.904358,514.091797 
	C933.427795,513.346863 939.535889,512.794617 945.633850,512.147522 
	C947.803345,511.917358 949.132202,512.411499 949.249207,514.892151 
	C949.397339,518.035339 949.744446,521.168762 949.944031,524.310364 
	C949.983337,524.928711 949.903320,525.677856 949.051514,525.846252 
	C948.017273,526.050598 947.462402,525.429993 947.341553,524.551208 
	C947.138794,523.076477 946.952087,521.573425 947.015808,520.093445 
	C947.162781,516.677368 945.829651,515.455505 942.270142,515.671814 
	C938.047974,515.928284 939.203735,518.415588 939.369812,520.852051 
	C939.493958,522.674805 940.927612,525.818604 938.719421,526.058655 
	C935.454895,526.413452 936.885193,522.733521 936.759338,521.079834 
	C936.449036,517.001404 935.054382,515.534607 930.967712,516.725891 
	C927.342590,517.782532 929.518311,520.516113 929.015503,522.472534 
	C928.556213,524.259644 930.717041,527.398621 928.358398,527.638672 
	C925.437866,527.935913 926.442505,524.441223 926.291260,522.570679 
	C926.069031,519.819946 925.341125,516.988953 926.904358,514.091797 
z"/>
<path fill="#CEFC6C" opacity="1.000000" stroke="none" 
	d="
M912.496094,688.222778 
	C916.316589,689.222168 919.485779,690.573730 921.745300,693.484924 
	C926.150391,699.160767 923.024353,707.982422 916.159912,709.200317 
	C915.072144,709.393311 913.661743,710.014160 913.180359,708.471069 
	C912.717529,706.987183 913.972900,706.670654 915.148682,706.241516 
	C920.159180,704.412598 922.048157,700.935913 920.330811,696.963013 
	C918.409424,692.518005 911.517151,689.705566 907.240173,691.621216 
	C903.172913,693.442932 902.005066,697.334534 904.262695,701.994629 
	C904.790833,703.084778 905.678589,704.366882 904.526917,705.069580 
	C903.032654,705.981384 902.218384,704.316284 901.536560,703.287964 
	C899.410339,700.080811 899.452454,696.653503 901.194397,693.361633 
	C903.495911,689.012085 907.372314,687.608643 912.496094,688.222778 
z"/>
<path fill="#CCFC6E" opacity="1.000000" stroke="none" 
	d="
M930.333130,598.180908 
	C928.631226,596.529785 924.607605,596.588989 925.877563,594.081543 
	C927.246277,591.379150 929.527344,594.523071 931.180176,595.276062 
	C936.152649,597.541687 940.941284,600.210571 945.802246,602.721008 
	C946.844849,603.259460 947.909424,603.760925 947.835205,605.223877 
	C947.760132,606.703064 946.678223,607.162231 945.528320,607.432678 
	C939.080139,608.949402 932.627197,610.447205 926.160461,611.881592 
	C925.289795,612.074646 924.014648,612.476196 923.667969,611.142090 
	C923.372192,610.003845 924.270752,609.491699 925.270142,609.036987 
	C931.457520,606.221497 931.862732,605.374451 930.333130,598.180908 
z"/>
<path fill="#CFFC6C" opacity="1.000000" stroke="none" 
	d="
M164.281693,631.902893 
	C165.024216,633.572510 164.194672,634.515625 163.131348,634.977417 
	C157.725815,637.325195 159.927856,641.308105 160.808762,645.063049 
	C161.355392,647.393188 163.238998,646.895813 164.792328,647.047363 
	C166.494949,647.213562 168.597946,647.333740 168.153046,649.582703 
	C167.791061,651.412537 165.912094,650.121704 164.795807,650.005798 
	C158.871719,649.390686 152.965515,648.604980 147.049820,647.906433 
	C145.547806,647.729065 143.970657,647.719971 143.519104,645.836365 
	C143.100388,644.089783 144.522400,643.526489 145.626541,642.896912 
	C151.889191,639.326050 157.238922,634.257874 164.281693,631.902893 
z"/>
<path fill="#CEFC6C" opacity="1.000000" stroke="none" 
	d="
M153.649414,495.871796 
	C154.526520,495.654755 155.028549,495.349792 155.478714,495.413177 
	C157.239410,495.661102 159.827194,493.130829 160.554306,495.701599 
	C161.192688,497.958740 158.198074,497.845306 156.527252,498.186249 
	C153.140823,498.877167 153.552185,501.740265 153.110016,504.050934 
	C152.694565,506.221771 152.548584,508.409241 155.298203,509.381683 
	C156.068939,509.654266 156.770752,510.131531 157.488144,510.542877 
	C158.445541,511.091858 159.070206,511.925476 158.540283,512.990112 
	C157.887375,514.301819 156.858337,513.578125 156.013321,513.140808 
	C150.132217,510.097290 144.262207,507.032288 138.393127,503.965576 
	C137.359344,503.425385 136.221054,502.881042 136.389008,501.447021 
	C136.577667,499.836334 137.841690,499.415253 139.207199,499.113739 
	C143.892502,498.079163 148.570023,497.009491 153.649414,495.871796 
z"/>
<path fill="#CCFC6E" opacity="1.000000" stroke="none" 
	d="
M930.041687,555.811157 
	C925.586365,554.487244 928.119324,553.244751 929.992188,552.787781 
	C933.764832,551.867188 934.074463,549.457458 934.202515,546.142090 
	C934.342896,542.505859 932.687256,541.045715 929.621460,540.263000 
	C928.497253,539.975891 927.118286,539.605164 927.545227,538.055115 
	C928.014404,536.351501 929.377563,537.092529 930.413696,537.451660 
	C936.522827,539.568970 942.612366,541.742737 948.721741,543.859436 
	C949.871704,544.257935 950.902222,544.618835 950.968872,546.102356 
	C951.048157,547.866943 949.726379,548.289551 948.499817,548.763428 
	C942.469116,551.093018 936.426514,553.391846 930.041687,555.811157 
z"/>
<path fill="#CDFC6D" opacity="1.000000" stroke="none" 
	d="
M133.873260,562.030701 
	C132.270859,559.572266 133.382141,558.581970 135.467468,557.803345 
	C141.385956,555.593689 147.241196,553.214478 153.162567,551.012939 
	C153.997498,550.702515 155.379028,549.337463 155.947372,551.355896 
	C156.367874,552.849304 155.118774,553.604614 154.026535,553.790710 
	C149.343155,554.588867 150.025848,557.982361 149.833435,561.344299 
	C149.632050,564.862793 151.851913,565.386475 154.285065,566.113770 
	C155.590866,566.504150 157.138077,567.194885 156.431091,568.827881 
	C155.608627,570.727661 154.051361,569.207703 153.012436,568.858521 
	C146.711639,566.740540 140.466583,564.456787 133.873260,562.030701 
z"/>
<path fill="#CDFC6D" opacity="1.000000" stroke="none" 
	d="
M168.443298,413.974548 
	C175.989014,416.506989 180.267838,414.930237 181.097397,409.571503 
	C181.355148,407.906433 181.295959,406.249481 180.252762,404.784943 
	C179.509628,403.741638 178.143555,402.423706 179.872543,401.505951 
	C181.315582,400.740021 182.143829,402.508759 182.839859,403.534668 
	C186.752090,409.301025 182.497696,417.692841 175.145126,418.381256 
	C170.030487,418.860077 165.693832,416.863617 162.414230,412.848511 
	C159.955017,409.837769 159.738892,406.471924 161.275864,403.003235 
	C162.722809,399.737701 165.247696,397.701935 168.808594,397.148132 
	C169.680283,397.012573 170.991699,396.653381 171.212448,398.082764 
	C171.390793,399.237640 170.598801,399.866638 169.446671,400.022003 
	C165.772247,400.517609 163.774200,402.877899 163.368469,406.309143 
	C162.948502,409.860626 165.013611,412.241547 168.443298,413.974548 
z"/>
<path fill="#CCFC6E" opacity="1.000000" stroke="none" 
	d="
M933.359741,623.761230 
	C935.234497,624.141113 936.697205,624.412964 938.153259,624.716431 
	C944.901733,626.122620 944.901184,626.125732 943.405029,632.389832 
	C941.827393,638.995117 938.729065,641.433411 933.599915,639.953552 
	C929.201355,638.684387 927.270081,635.452515 928.357422,631.210693 
	C929.375977,627.237610 928.678284,625.239258 924.374451,624.997803 
	C923.172241,624.930359 921.176453,625.063965 921.459351,623.220337 
	C921.786682,621.086670 923.839966,621.913391 925.167908,622.106445 
	C927.780579,622.486267 930.354614,623.132019 933.359741,623.761230 
z"/>
<path fill="#CFFC6C" opacity="1.000000" stroke="none" 
	d="
M930.133667,458.010773 
	C933.034302,458.372833 935.491333,458.734375 937.957886,459.010590 
	C939.166626,459.145966 940.287964,459.311035 940.678833,460.693024 
	C941.068787,462.071960 940.278564,462.848511 939.234070,463.525177 
	C933.811340,467.038177 928.413452,470.589935 922.966675,474.065155 
	C922.118103,474.606598 920.960388,475.887451 920.098694,474.238129 
	C919.426147,472.950958 920.469666,471.979431 921.558350,471.502014 
	C924.774902,470.091522 925.069702,467.961700 924.313354,464.679260 
	C923.573608,461.469208 922.614685,459.523468 918.992981,459.658264 
	C917.742981,459.704773 915.961975,459.361084 916.174072,457.598328 
	C916.422913,455.530884 918.165100,456.495483 919.348999,456.636108 
	C922.801636,457.046173 926.246277,457.523926 930.133667,458.010773 
z"/>
<path fill="#CDFC6D" opacity="1.000000" stroke="none" 
	d="
M919.132202,650.858643 
	C917.505249,650.181519 915.336914,650.219543 916.212036,647.990540 
	C916.821411,646.438354 918.205444,647.450073 919.246582,647.719482 
	C924.880310,649.177551 930.498352,650.697388 936.140686,652.121094 
	C938.179260,652.635498 938.890991,653.621277 938.145020,655.704956 
	C937.530762,657.420959 937.293152,659.270569 936.694824,660.993652 
	C935.134155,665.488525 931.927307,667.492004 928.001465,666.559387 
	C923.439514,665.475647 921.192017,662.034790 922.238831,657.110352 
	C922.855652,654.208252 924.076233,651.411865 919.132202,650.858643 
z"/>
<path fill="#CEFC6C" opacity="1.000000" stroke="none" 
	d="
M141.977325,481.266571 
	C141.282623,481.088501 140.797134,481.114014 140.663834,480.909729 
	C139.157181,478.600464 140.596390,471.102844 143.018524,468.606812 
	C145.573257,465.974304 148.630859,465.782379 151.726898,467.281128 
	C155.649841,469.180176 156.741928,472.622894 155.405396,476.514038 
	C153.920944,480.835876 156.638245,481.146393 159.559616,481.725647 
	C160.731720,481.958099 162.780823,481.692535 162.572891,483.543304 
	C162.321732,485.778656 160.295166,484.991608 158.954865,484.736450 
	C153.406998,483.680237 147.882935,482.498840 141.977325,481.266571 
z"/>
<path fill="#CDFC6D" opacity="1.000000" stroke="none" 
	d="
M151.443146,455.520081 
	C148.764343,454.340485 144.621536,455.572296 145.954102,450.346466 
	C147.980209,442.400848 150.773041,439.182007 155.741684,440.185822 
	C160.122925,441.070984 162.999374,444.627167 161.771118,448.934753 
	C160.480881,453.459686 161.131866,455.873596 166.162430,456.285370 
	C167.312698,456.379517 168.485916,457.092438 167.869263,458.677490 
	C167.322006,460.084229 166.215637,459.395813 165.332306,459.171906 
	C160.819290,458.028015 156.318481,456.835907 151.443146,455.520081 
z"/>
<path fill="#CCFC6E" opacity="1.000000" stroke="none" 
	d="
M169.861176,659.567017 
	C171.830933,660.386536 172.449036,661.483948 171.033798,662.977051 
	C170.264893,663.788330 169.192429,663.914795 168.494080,662.997864 
	C167.366928,661.517883 167.809311,660.294312 169.861176,659.567017 
z"/>
<path fill="#CCFC6E" opacity="1.000000" stroke="none" 
	d="
M909.377136,675.867310 
	C907.747131,674.143066 908.344177,672.995544 909.993835,672.351562 
	C911.041626,671.942566 912.002991,672.591248 912.225769,673.621765 
	C912.659790,675.629578 911.442932,676.172485 909.377136,675.867310 
z"/>
<path fill="#CCFC6E" opacity="1.000000" stroke="none" 
	d="
M913.511230,446.783051 
	C911.995300,445.100220 912.353088,443.908844 914.106018,443.286041 
	C915.163696,442.910309 916.107239,443.589996 916.317322,444.588684 
	C916.726562,446.534424 915.611267,447.171661 913.511230,446.783051 
z"/>
<path fill="#CCFC6E" opacity="1.000000" stroke="none" 
	d="
M175.129471,431.036804 
	C176.339951,432.957581 175.788620,434.096985 173.955521,434.399231 
	C172.908707,434.571808 172.041031,433.820221 172.048111,432.710907 
	C172.060074,430.841431 173.024307,430.092804 175.129471,431.036804 
z"/>
<path fill="#3E3E3E" opacity="1.000000" stroke="none" 
	d="
M981.685425,229.248627 
	C985.963684,228.890076 989.983826,228.485092 993.742188,230.192932 
	C996.583618,231.484116 997.310791,233.463226 994.892029,236.024796 
	C989.760071,241.459702 973.892517,247.404694 965.286072,246.806107 
	C968.633545,244.698898 972.192017,245.072433 975.367004,244.141144 
	C981.148560,242.445328 986.491699,240.000610 991.426697,236.606293 
	C992.741882,235.701645 994.914673,234.964630 994.451538,233.133408 
	C993.942932,231.122452 991.630737,231.081894 989.820862,231.026199 
	C986.513855,230.924469 983.201965,230.982162 979.432495,230.894547 
	C978.882935,230.625931 978.793091,230.436142 978.849854,229.966263 
	C979.699219,229.088913 980.517822,229.027527 981.685425,229.248627 
z"/>
<path fill="#5C5C5C" opacity="1.000000" stroke="none" 
	d="
M990.376892,225.436829 
	C990.897888,224.930832 991.710693,224.318558 992.623230,224.065186 
	C994.622742,223.509979 997.829163,223.662476 997.481689,221.051498 
	C997.175720,218.752258 993.975281,218.247864 991.705627,218.172318 
	C984.390625,217.928802 977.067444,217.934677 969.300293,217.664886 
	C968.583008,214.197189 971.557007,216.237106 972.811523,214.829071 
	C975.030273,212.952881 975.697083,216.490479 977.712402,215.339874 
	C981.647278,217.461014 986.115295,215.442520 990.057861,216.839035 
	C990.503967,216.997025 991.050110,216.851425 991.545959,216.893082 
	C994.792969,217.165756 999.375000,216.822144 999.188416,221.127365 
	C998.990051,225.704819 994.543091,225.879730 990.376892,225.436829 
z"/>
<path fill="#4D4D4D" opacity="1.000000" stroke="none" 
	d="
M987.710693,201.391678 
	C991.413391,200.990768 994.248108,202.752167 997.132019,204.212265 
	C998.601013,204.956024 999.796875,206.345169 999.652344,208.141693 
	C999.506470,209.955612 998.091248,210.967529 996.475647,211.527817 
	C994.009277,212.383163 991.513367,213.175140 988.419312,212.984131 
	C987.832581,212.879883 987.665649,212.763489 987.739014,212.458755 
	C990.510864,211.571045 993.049805,210.896606 995.570862,210.160980 
	C996.706848,209.829529 997.787048,209.352676 997.918884,207.928223 
	C998.053223,206.475708 996.930054,205.890335 995.965393,205.310074 
	C993.671936,203.930542 991.147705,203.116852 988.251099,202.353226 
	C987.795105,201.969864 987.623352,201.804230 987.710693,201.391678 
z"/>
<path fill="#3E3E3E" opacity="1.000000" stroke="none" 
	d="
M965.604126,186.661636 
	C971.128662,185.989059 976.120361,186.700607 981.668152,187.472473 
	C979.539124,188.457108 964.721619,188.305191 959.931030,187.266617 
	C962.462769,186.987762 963.816956,186.838623 965.604126,186.661636 
z"/>
<path fill="#222222" opacity="1.000000" stroke="none" 
	d="
M978.712585,229.958755 
	C978.946167,230.255692 978.939453,230.536652 978.956177,230.676193 
	C973.137268,230.954880 967.373840,232.548096 961.473572,231.723236 
	C966.291931,230.433228 970.903687,227.846481 976.585083,229.659897 
	C977.504272,229.480652 977.985596,229.455566 978.712585,229.958755 
z"/>
<path fill="#171717" opacity="1.000000" stroke="none" 
	d="
M972.221802,201.534332 
	C967.386902,202.156616 962.791077,202.485550 958.195190,202.814484 
	C958.140137,202.377548 958.085022,201.940628 958.029907,201.503693 
	C962.409363,200.716705 966.788818,199.929703 971.575684,199.157364 
	C972.584534,199.759567 972.699768,200.459381 972.221802,201.534332 
z"/>
<path fill="#2A2A2A" opacity="1.000000" stroke="none" 
	d="
M972.444946,201.905487 
	C971.991028,201.163727 971.999329,200.499756 971.995361,199.503906 
	C973.723145,198.798233 975.463257,198.424454 977.592896,198.103271 
	C978.128479,198.328979 978.274536,198.502106 978.427979,199.013992 
	C978.279602,199.995056 977.677368,200.222961 977.258362,200.620941 
	C977.782043,200.317078 978.371704,200.194763 979.615051,200.073608 
	C982.570190,200.418854 984.848938,200.700272 987.548706,201.063232 
	C987.969788,201.144775 987.952087,201.640091 987.959473,201.887787 
	C982.946899,202.084747 977.926941,202.034027 972.444946,201.905487 
z"/>
<path fill="#2A2A2A" opacity="1.000000" stroke="none" 
	d="
M990.825562,196.276703 
	C992.878052,194.849899 993.906433,193.604477 991.161926,192.218567 
	C989.086853,191.170715 986.763123,190.696823 985.680054,189.684647 
	C986.944519,189.619431 989.129150,189.518982 991.205872,190.463715 
	C995.263428,192.309540 995.416748,194.094131 991.324707,196.960724 
	C990.866028,196.783585 990.745850,196.633804 990.825562,196.276703 
z"/>
<path fill="#1A1A1A" opacity="1.000000" stroke="none" 
	d="
M972.521484,214.554138 
	C972.322693,216.350998 970.112061,215.633011 968.954224,217.161102 
	C965.315186,217.485382 961.777039,217.485382 958.238953,217.485382 
	C958.217224,217.011078 958.195557,216.536774 958.173889,216.062469 
	C962.803772,215.584152 967.433655,215.105835 972.521484,214.554138 
z"/>
<path fill="#3E3E3E" opacity="1.000000" stroke="none" 
	d="
M990.613281,196.092316 
	C991.025513,196.069366 990.988220,196.500549 990.987183,196.716949 
	C987.758240,198.677979 984.062500,198.396393 980.468384,199.729156 
	C980.291504,200.137436 980.353149,200.069305 980.397644,200.057892 
	C979.746643,200.059174 979.086121,199.939072 978.261230,199.291168 
	C978.022034,199.047562 978.001709,198.601730 977.992065,198.378784 
	C982.055237,197.475662 986.128174,196.795456 990.613281,196.092316 
z"/>
<path fill="#3E3E3E" opacity="1.000000" stroke="none" 
	d="
M987.588318,212.126572 
	C987.979248,212.270447 987.952698,212.634384 987.976135,212.815338 
	C985.140564,214.723557 981.852783,214.488312 978.309204,214.987000 
	C977.885620,214.953140 977.920044,215.033844 977.959839,215.050003 
	C980.222839,211.524445 984.254883,213.378632 987.588318,212.126572 
z"/>
<path fill="#3E3E3E" opacity="1.000000" stroke="none" 
	d="
M989.691406,225.183914 
	C990.039795,225.380295 989.922791,225.614883 989.945312,225.743988 
	C987.895081,227.645370 985.176270,227.197403 982.456299,227.954529 
	C983.564575,224.639282 987.020203,226.196213 989.691406,225.183914 
z"/>
<path fill="#AAAAAA" opacity="1.000000" stroke="none" 
	d="
M979.266663,230.182617 
	C978.447510,230.178635 977.948853,230.101593 977.242615,229.880859 
	C977.675476,227.354980 979.545898,227.875565 981.667542,227.955978 
	C982.103943,227.952789 982.017456,227.963776 982.030640,227.921539 
	C982.008057,228.119492 981.972168,228.359695 981.963257,228.963165 
	C981.189148,229.587494 980.388184,229.848526 979.266663,230.182617 
z"/>
<path fill="#D4B6FF" opacity="1.000000" stroke="none" 
	d="
M735.890259,337.000061 
	C735.890381,533.332947 735.892761,729.165894 735.886963,924.998779 
	C735.886414,945.011963 723.731201,960.161682 704.981628,963.449341 
	C702.540588,963.877319 700.007874,963.910095 697.517578,963.910645 
	C593.017761,963.932129 488.518005,963.938049 384.018219,963.921875 
	C361.624329,963.918396 345.894012,948.280212 345.892456,925.936218 
	C345.874329,669.603455 345.875244,413.270660 345.890289,156.937881 
	C345.891602,134.372940 361.331146,118.904243 383.832275,118.899826 
	C488.498718,118.879265 593.165161,118.879189 697.831604,118.899788 
	C720.178467,118.904190 735.867920,134.616318 735.879272,157.001892 
	C735.909607,216.834595 735.890015,276.667328 735.890259,337.000061 
z"/>
<path fill="#838383" opacity="1.000000" stroke="none" 
	d="
M330.038208,144.873352 
	C327.729218,142.708710 330.839111,141.375854 330.237366,139.412048 
	C333.986145,138.776382 336.321259,140.626450 336.882660,144.440201 
	C337.148956,146.249191 336.996582,148.096695 336.996704,149.926987 
	C336.999908,206.681534 336.996063,263.436066 337.008820,320.190613 
	C337.009369,322.514893 336.808136,324.851898 337.438354,327.616516 
	C337.672119,330.066132 337.771179,332.061584 337.770844,334.057037 
	C337.737732,531.062561 337.694763,728.068054 337.671844,925.073547 
	C337.671356,929.400024 337.894562,933.726501 338.033264,938.520874 
	C337.797363,942.934326 334.549866,945.849182 333.997772,949.978455 
	C332.251190,948.265564 331.464294,946.095215 330.861328,943.478149 
	C329.464539,934.721680 328.944031,926.301453 328.950317,917.787720 
	C329.027893,812.976074 328.711609,708.163208 329.140778,603.353210 
	C329.316742,560.373535 328.982971,517.388672 329.660156,474.416351 
	C329.890747,459.783722 329.145721,445.179657 329.507446,430.563446 
	C329.811157,418.290863 329.945831,406.004486 329.858490,393.741913 
	C329.711517,373.114990 329.168976,352.480316 329.602509,331.861542 
	C330.011261,312.423920 329.357391,293.004333 329.493988,273.576508 
	C329.676636,247.605545 329.198486,221.631424 329.571533,195.664169 
	C329.812744,178.874207 328.512604,162.058487 330.038208,144.873352 
z"/>
<path fill="#818181" opacity="1.000000" stroke="none" 
	d="
M751.189819,456.181580 
	C753.978638,459.090668 752.489563,462.067444 751.562378,465.104553 
	C752.435608,467.340454 752.514526,469.633911 752.514282,471.990997 
	C752.498474,623.104126 752.501526,774.217224 752.492920,925.330322 
	C752.492554,931.175415 751.490662,936.908447 750.211548,943.094727 
	C751.042908,945.560669 749.449219,946.892822 748.503479,948.715088 
	C745.541382,944.990967 743.658569,940.763977 743.969666,935.409668 
	C743.989746,932.639099 744.023987,930.285583 744.100220,927.493530 
	C745.347656,925.245422 744.986023,923.190857 744.986206,921.220398 
	C745.002686,756.605713 745.386963,591.989685 744.848083,427.376770 
	C744.549744,336.249786 744.821106,245.124023 744.490784,153.998352 
	C744.482361,151.672638 744.663757,149.341278 744.216309,147.021515 
	C743.552979,143.582626 744.847717,141.171310 748.654907,139.810577 
	C750.801392,139.837463 751.304443,141.038437 751.675659,142.887024 
	C753.516174,236.211761 751.989624,329.050262 752.524536,421.882751 
	C752.558105,427.707428 751.651978,433.492584 751.998413,439.319977 
	C752.106079,441.130432 751.727722,442.994629 752.965576,445.056030 
	C754.061340,447.172516 753.910950,448.962585 753.014099,450.889709 
	C750.399719,452.099884 752.082275,454.267944 751.189819,456.181580 
z"/>
<path fill="#575757" opacity="1.000000" stroke="none" 
	d="
M709.202271,979.687561 
	C704.786255,981.384521 700.577026,982.005371 696.179565,982.004150 
	C592.701782,981.974976 489.224030,981.991211 385.746277,982.066711 
	C379.672516,982.071167 374.084717,981.406189 370.251801,975.973267 
	C369.783997,975.310120 368.984955,974.715576 369.352722,973.807190 
	C369.866608,972.537842 371.021851,972.932007 371.921417,973.163025 
	C377.834351,974.681580 383.861237,974.043274 389.829895,974.045227 
	C491.308044,974.078735 592.786255,974.007629 694.264282,974.111023 
	C700.598450,974.117493 706.371643,972.169312 712.755859,970.758667 
	C714.627686,974.701660 711.726868,976.924866 709.202271,979.687561 
z"/>
<path fill="#5C5C5C" opacity="1.000000" stroke="none" 
	d="
M750.400391,139.530090 
	C745.699402,142.030731 744.167847,145.394897 745.865295,150.175232 
	C746.180786,151.063721 745.914490,152.159256 745.914490,153.159225 
	C745.914124,408.987244 745.915955,664.815247 745.868958,920.643250 
	C745.868591,922.690247 746.778381,925.002258 744.510010,926.921936 
	C744.043213,925.064636 743.858093,923.074158 743.857544,921.083679 
	C743.817017,757.453430 744.169617,593.821899 743.616516,430.193451 
	C743.301697,337.056580 743.479980,243.920929 743.317261,150.784988 
	C743.301575,141.808273 740.442627,133.844971 736.882507,125.544952 
	C737.748779,121.738289 739.808289,123.151123 741.392761,124.379997 
	C742.887939,125.539597 744.075500,127.115936 745.775879,128.695862 
	C748.121094,131.608261 749.431274,134.610535 750.382446,138.167480 
	C750.517151,138.774673 750.606812,139.021988 750.400391,139.530090 
z"/>
<path fill="#B9B9B9" opacity="1.000000" stroke="none" 
	d="
M329.584900,144.851379 
	C331.397583,146.084244 330.973846,148.161346 330.973450,150.127258 
	C330.943665,293.572174 331.540802,437.020996 330.663757,580.460754 
	C329.989532,690.732361 330.528778,801.000000 330.064209,911.268250 
	C330.020203,921.716919 329.781158,932.175415 331.128693,942.828125 
	C327.905365,937.082581 327.991577,930.560547 327.990875,924.116882 
	C327.975922,787.361938 328.011261,650.606934 328.030212,513.851990 
	C328.041382,433.244751 328.042511,352.637512 328.045654,272.030273 
	C328.047150,233.722092 328.047119,195.413925 328.034943,157.105743 
	C328.033661,153.096069 328.181458,149.113510 329.584900,144.851379 
z"/>
<path fill="#AAAAAA" opacity="1.000000" stroke="none" 
	d="
M750.415405,943.373169 
	C752.329224,831.978455 750.449646,720.378357 750.955322,608.784607 
	C751.170471,561.301575 751.008911,513.816772 751.071167,465.805054 
	C752.523865,464.090729 753.301575,464.871368 753.503479,466.237793 
	C753.745178,467.873291 753.729980,469.555054 753.730225,471.216766 
	C753.751160,621.997803 753.763367,772.778809 753.772949,923.559814 
	C753.773376,930.249390 753.361389,936.880615 750.415405,943.373169 
z"/>
<path fill="#373737" opacity="1.000000" stroke="none" 
	d="
M716.192139,112.624054 
	C715.106445,112.624130 714.278687,112.338181 713.165588,111.879486 
	C707.213013,106.172951 699.803955,106.685822 692.766846,105.941254 
	C690.946716,105.748657 689.105835,105.801956 687.273010,105.801910 
	C586.485718,105.799644 485.698364,105.786568 384.911072,105.839806 
	C379.662994,105.842575 374.133301,105.147980 369.399139,109.578072 
	C367.743317,110.834221 366.230103,111.033150 364.314331,111.203499 
	C362.400269,107.579597 365.502167,106.359673 367.758301,104.285797 
	C374.528107,101.208923 381.218109,99.935173 388.380676,99.943329 
	C489.815369,100.058884 591.250183,100.051956 692.684937,99.954941 
	C698.777283,99.949112 704.605713,100.538261 710.592407,102.972412 
	C713.809570,105.543205 717.469604,107.558815 716.192139,112.624054 
z"/>
<path fill="#4B4B4B" opacity="1.000000" stroke="none" 
	d="
M369.426270,109.865875 
	C370.173767,105.115540 374.464722,105.081512 378.019745,104.101288 
	C379.416077,103.716286 381.000641,104.002563 382.499481,104.002563 
	C484.935883,104.002220 587.372375,103.971344 689.808594,104.091370 
	C695.558289,104.098106 701.319641,105.255630 707.049805,106.061172 
	C709.923828,106.465202 711.520264,108.679657 712.855347,111.385788 
	C701.278320,106.883926 689.059326,108.055809 676.972229,108.052498 
	C579.656555,108.025848 482.340912,108.012848 385.025269,108.034210 
	C379.902039,108.035332 374.661621,107.400620 369.426270,109.865875 
z"/>
<path fill="#BBBBBB" opacity="1.000000" stroke="none" 
	d="
M753.407104,444.900146 
	C749.667725,444.376953 751.069885,441.339264 751.066101,439.138550 
	C750.972900,385.533844 750.968262,331.928955 750.953674,278.324127 
	C750.942322,236.871933 750.950928,195.419739 750.910339,153.967575 
	C750.906982,150.514984 750.595947,147.062698 750.679565,143.335419 
	C751.835632,143.324265 752.110657,144.149231 752.488525,145.155731 
	C752.839722,148.928482 753.567749,152.394196 753.568420,155.860031 
	C753.587585,252.041977 753.532898,348.223938 753.407104,444.900146 
z"/>
<path fill="#6C6C6C" opacity="1.000000" stroke="none" 
	d="
M337.733948,327.609222 
	C334.847382,326.793335 336.058655,324.283142 336.056366,322.345398 
	C335.988373,264.489349 335.956909,206.633133 336.088531,148.777328 
	C336.098572,144.352875 334.335571,141.486038 330.674500,139.102234 
	C330.572510,137.302017 331.642273,135.940796 332.827789,134.275391 
	C335.434967,132.337662 336.401428,127.484367 341.082001,130.714645 
	C338.241577,139.955902 337.843933,149.113678 337.861847,158.430710 
	C337.969879,214.669510 337.875275,270.908691 337.733948,327.609222 
z"/>
<path fill="#4D4D4D" opacity="1.000000" stroke="none" 
	d="
M341.573914,130.995209 
	C337.406342,128.568970 336.433075,133.567978 333.349243,133.975235 
	C337.816071,122.111519 346.286255,113.474144 357.431335,106.833542 
	C357.769226,106.751869 358.225464,106.814728 358.255371,107.043060 
	C351.701904,114.378990 346.397797,122.372429 341.573914,130.995209 
z"/>
<path fill="#5C5C5C" opacity="1.000000" stroke="none" 
	d="
M743.725525,935.295410 
	C744.436279,939.614319 748.267700,943.174805 748.144409,948.486816 
	C747.074768,952.376892 745.738586,955.690247 743.217041,958.762085 
	C740.726868,960.313416 738.559570,962.113037 735.926270,959.385315 
	C739.045044,951.354736 742.610168,943.909302 743.725525,935.295410 
z"/>
<path fill="#4B4B4B" opacity="1.000000" stroke="none" 
	d="
M343.729523,955.729126 
	C348.593292,963.273438 353.187378,970.512939 359.735352,976.321289 
	C349.816956,972.467590 342.525177,965.636841 336.894165,956.453491 
	C338.787811,953.473267 341.034698,953.844177 343.729523,955.729126 
z"/>
<path fill="#4B4B4B" opacity="1.000000" stroke="none" 
	d="
M746.018188,128.618988 
	C743.799377,129.022934 742.804565,127.125130 741.382263,125.888870 
	C740.189026,124.851654 739.150940,123.352051 737.028198,124.922165 
	C731.446960,120.177094 729.213074,112.938629 724.133362,107.657097 
	C733.942688,111.945335 740.534119,119.499611 746.018188,128.618988 
z"/>
<path fill="#4B4B4B" opacity="1.000000" stroke="none" 
	d="
M735.679260,959.153320 
	C738.018311,961.178833 740.108398,958.311401 742.565857,958.976807 
	C737.999451,967.436462 730.416016,972.818665 721.323853,976.911255 
	C723.547974,971.273254 729.572144,968.609802 732.543823,963.275513 
	C733.325623,961.872253 734.443665,960.656250 735.679260,959.153320 
z"/>
<path fill="#636363" opacity="1.000000" stroke="none" 
	d="
M343.975403,955.634521 
	C341.893951,956.133179 339.737823,954.602966 337.204041,956.040649 
	C335.213959,954.636658 334.336853,952.724854 333.657288,950.427124 
	C332.250183,945.612671 335.270172,942.666992 337.782288,939.215332 
	C340.264435,944.324036 341.147156,950.135742 343.975403,955.634521 
z"/>
<path fill="#1A1A1A" opacity="1.000000" stroke="none" 
	d="
M709.296326,979.964722 
	C710.288696,977.111755 711.669617,974.276001 713.101562,971.047607 
	C715.166565,969.575378 717.140137,968.408813 719.210876,967.452393 
	C720.269409,966.963440 721.513000,965.482056 722.643982,966.991272 
	C723.396973,967.996033 722.602051,969.404846 721.854553,970.131287 
	C718.102661,973.777161 715.897034,979.379761 709.296326,979.964722 
z"/>
<path fill="#222222" opacity="1.000000" stroke="none" 
	d="
M716.295471,112.991928 
	C716.509033,108.687302 712.416992,106.936737 711.017456,103.389099 
	C711.719788,103.043678 712.476440,103.040245 713.610840,103.046921 
	C714.868225,103.028984 715.750977,102.983986 716.766479,103.755272 
	C717.508423,104.295784 718.004700,104.617195 718.811768,104.961006 
	C719.279114,104.879822 719.435608,104.776245 719.820923,104.836372 
	C720.049866,105.000076 719.991150,105.012093 719.987427,104.982338 
	C720.349915,105.230606 720.678650,105.547485 720.988770,106.246246 
	C720.994873,107.123871 720.982239,107.658318 720.969482,108.593719 
	C721.003418,109.592430 721.191528,110.131294 721.790283,110.796066 
	C721.476135,114.927917 719.047485,113.952087 716.295471,112.991928 
z"/>
<path fill="#171717" opacity="1.000000" stroke="none" 
	d="
M367.659424,104.015427 
	C367.935181,106.948456 364.458740,107.783394 363.982910,110.877151 
	C362.139893,113.866280 359.724792,115.595642 355.350830,117.154884 
	C358.522797,111.903183 361.086395,107.901245 364.801453,104.273758 
	C365.757111,104.002892 366.517883,104.002983 367.659424,104.015427 
z"/>
<path fill="#111111" opacity="1.000000" stroke="none" 
	d="
M723.131714,115.761429 
	C723.125854,114.186279 723.227234,112.791191 724.962708,113.799644 
	C726.058044,114.436127 726.369141,115.910797 725.675781,116.862854 
	C724.532776,118.432220 723.821899,117.090790 723.131714,115.761429 
z"/>
<path fill="#4B4B4B" opacity="1.000000" stroke="none" 
	d="
M752.610229,145.088013 
	C751.553833,145.211517 750.929382,144.730530 750.946289,143.378387 
	C750.735901,142.187927 750.540466,141.315262 750.224609,140.116745 
	C750.139709,139.576401 750.175110,139.361923 750.319092,138.837402 
	C752.296570,140.177277 752.719849,142.374603 752.610229,145.088013 
z"/>
<path fill="#111111" opacity="1.000000" stroke="none" 
	d="
M716.960327,103.655136 
	C716.152344,103.831749 715.292419,103.689125 714.210632,103.301765 
	C715.091980,101.788605 716.089050,101.632492 716.960327,103.655136 
z"/>
<path fill="#4B4B4B" opacity="1.000000" stroke="none" 
	d="
M721.322510,106.684677 
	C720.735657,106.192169 720.463867,105.794907 720.087891,105.175110 
	C721.056763,104.952858 722.240051,104.754318 722.624695,106.159058 
	C722.654480,106.267761 721.983032,106.568451 721.322510,106.684677 
z"/>
<path fill="#BBBBBB" opacity="1.000000" stroke="none" 
	d="
M751.617676,456.726318 
	C751.200378,454.835144 750.486755,452.943024 752.215332,451.177185 
	C753.680664,453.057709 753.836487,455.022827 751.617676,456.726318 
z"/>
<path fill="#111111" opacity="1.000000" stroke="none" 
	d="
M721.975403,110.700653 
	C721.106079,110.814781 719.999573,110.818474 720.760071,109.176353 
	C721.296448,109.463959 721.623657,109.933243 721.975403,110.700653 
z"/>
<path fill="#171717" opacity="1.000000" stroke="none" 
	d="
M365.001221,103.999130 
	C364.398071,103.620796 363.987457,103.177063 364.562622,102.473763 
	C364.645233,102.372765 364.891602,102.296616 365.002106,102.345306 
	C365.669220,102.639214 365.308990,103.111031 365.084778,103.771225 
	C364.996338,104.002792 365.000000,104.000000 365.001221,103.999130 
z"/>
<path fill="#4B4B4B" opacity="1.000000" stroke="none" 
	d="
M721.052002,977.065857 
	C720.705994,977.681641 720.293213,978.256470 719.597168,977.476013 
	C719.845276,977.283203 720.093384,977.090332 720.580688,976.847290 
	C720.819885,976.797119 720.975098,976.975891 721.052002,977.065857 
z"/>
<path fill="#4D4D4D" opacity="1.000000" stroke="none" 
	d="
M357.897064,106.882919 
	C358.001953,106.605042 358.234680,106.458221 358.467407,106.311394 
	C358.515381,106.538452 358.563354,106.765511 358.448303,107.131981 
	C358.285278,107.271393 358.024902,107.013969 357.897064,106.882919 
z"/>
<path fill="#4B4B4B" opacity="1.000000" stroke="none" 
	d="
M719.990417,104.799095 
	C720.049866,105.000076 719.585754,104.967697 719.354248,104.975548 
	C719.203796,104.459900 719.421692,104.223335 719.990417,104.799095 
z"/>
<path fill="#4D4D4D" opacity="1.000000" stroke="none" 
	d="
M360.562164,105.614487 
	C360.438446,105.696754 360.368134,105.388878 360.368134,105.388878 
	C360.368134,105.388878 360.685883,105.532211 360.562164,105.614487 
z"/>
<path fill="#4B4B4B" opacity="1.000000" stroke="none" 
	d="
M361.387268,977.382141 
	C361.505066,977.301331 361.579193,977.593384 361.579193,977.593384 
	C361.579193,977.593384 361.269501,977.462952 361.387268,977.382141 
z"/>
<path fill="#4B4B4B" opacity="1.000000" stroke="none" 
	d="
M363.519470,978.475647 
	C363.561829,978.537720 363.477081,978.413574 363.519470,978.475647 
z"/>
<path fill="#1A1A1A" opacity="1.000000" stroke="none" 
	d="
M716.471069,979.451538 
	C716.525635,979.420654 716.416443,979.482483 716.471069,979.451538 
z"/>
<path fill="#5CE1E6" opacity="1.000000" stroke="none" 
	d="
M877.734985,347.274414 
	C877.789734,347.537445 877.671021,347.721771 877.554138,347.720581 
	C877.438354,347.719452 877.324402,347.531219 877.209656,347.425018 
	C877.327209,347.321503 877.444763,347.217987 877.734985,347.274414 
z"/>
<path fill="#5CE1E6" opacity="1.000000" stroke="none" 
	d="
M201.836304,344.151459 
	C201.523209,344.014557 201.408737,343.679321 201.294266,343.344055 
	C201.534134,343.305328 201.774002,343.266602 202.214874,343.384277 
	C202.288910,343.678101 202.161926,343.815582 201.836304,344.151459 
z"/>
<path fill="#5CE1E6" opacity="1.000000" stroke="none" 
	d="
M882.337036,762.651978 
	C882.944092,762.805542 883.671204,763.010864 883.309448,763.730408 
	C883.239929,763.868591 882.545227,763.692444 881.961426,763.455566 
	C881.903381,763.113708 882.022888,762.977661 882.337036,762.651978 
z"/>
<path fill="#5CE1E6" opacity="1.000000" stroke="none" 
	d="
M190.532257,726.442200 
	C190.634094,726.562073 190.256973,726.594543 190.256973,726.594543 
	C190.256973,726.594543 190.430435,726.322327 190.532257,726.442200 
z"/>
<path fill="#5CE1E6" opacity="1.000000" stroke="none" 
	d="
M183.790070,714.789734 
	C183.930252,714.554688 184.167038,714.414551 184.403839,714.274414 
	C184.431580,714.488586 184.459351,714.702698 184.284332,714.994751 
	C184.081558,715.072693 183.886673,714.884644 183.790070,714.789734 
z"/>
<path fill="#5FE2E3" opacity="1.000000" stroke="none" 
	d="
M136.870407,529.207275 
	C140.170517,524.900757 144.752060,523.605286 149.265442,525.424866 
	C153.259872,527.035278 154.352798,530.188782 154.116562,534.236938 
	C153.980637,536.566223 153.136414,537.489380 150.788757,537.307129 
	C147.986832,537.089539 145.168259,537.077698 142.356247,537.000061 
	C135.211212,536.802795 135.182556,536.770569 136.870407,529.207275 
z"/>
<path fill="#5FE2E3" opacity="1.000000" stroke="none" 
	d="
M936.496338,569.600830 
	C938.595398,569.728882 940.244141,569.817261 941.893860,569.876282 
	C948.165283,570.100586 949.815735,572.923645 946.747742,578.362122 
	C944.604065,582.162048 940.932556,582.336426 937.206543,581.959473 
	C933.610962,581.595703 930.969604,579.813721 930.092529,576.114319 
	C928.679688,570.155212 929.969971,568.768799 936.496338,569.600830 
z"/>
<path fill="#5FE2E3" opacity="1.000000" stroke="none" 
	d="
M892.117798,721.322510 
	C897.371277,716.641968 904.606995,717.784546 907.924316,723.456543 
	C910.151550,727.264709 908.378845,732.203674 904.112549,733.567627 
	C900.046997,734.867615 896.559937,733.226746 893.621155,730.595886 
	C890.906250,728.165405 890.003357,725.106384 892.117798,721.322510 
z"/>
<path fill="#5FE2E3" opacity="1.000000" stroke="none" 
	d="
M189.198395,387.720459 
	C184.631790,388.967010 180.922363,387.891357 177.732941,385.141052 
	C175.275711,383.022156 174.266312,380.277313 175.499786,377.110382 
	C176.728516,373.955658 179.222107,372.594513 182.549606,372.719147 
	C187.038727,372.887268 190.664749,374.689026 192.471329,378.922485 
	C193.976273,382.449036 192.570389,385.356323 189.198395,387.720459 
z"/>
<path fill="#62E3DF" opacity="1.000000" stroke="none" 
	d="
M934.225830,606.461670 
	C933.926331,604.377930 933.926331,602.576172 933.926331,600.432861 
	C937.443665,601.238342 940.029236,602.846924 942.997681,604.765991 
	C940.018127,606.142456 937.318237,606.626526 934.225830,606.461670 
z"/>
<path fill="#62E3DF" opacity="1.000000" stroke="none" 
	d="
M151.772797,645.801636 
	C150.483917,645.475525 149.578751,645.191406 148.128983,644.736328 
	C151.057785,642.774902 153.143478,640.216919 156.425888,640.356750 
	C156.953110,640.379211 158.106628,643.502380 157.670151,644.729553 
	C156.684525,647.500671 154.033737,645.430664 151.772797,645.801636 
z"/>
<path fill="#6AE4D7" opacity="1.000000" stroke="none" 
	d="
M149.743164,499.983521 
	C151.666473,501.999573 150.974686,504.841522 149.684433,505.355164 
	C146.459412,506.638977 144.191711,503.555695 141.401123,501.423767 
	C144.047485,500.922424 146.693848,500.421082 149.743164,499.983521 
z"/>
<path fill="#62E3DF" opacity="1.000000" stroke="none" 
	d="
M937.820801,543.317688 
	C940.855530,544.141663 943.503052,545.030518 947.164673,546.259888 
	C943.321106,547.705933 940.487427,548.772034 937.523865,549.887024 
	C936.710022,547.509277 936.588196,545.454590 937.820801,543.317688 
z"/>
<path fill="#62E3DF" opacity="1.000000" stroke="none" 
	d="
M147.073792,560.059814 
	C147.236969,562.748474 146.169464,563.489136 144.081741,562.815186 
	C142.054688,562.160828 140.053070,561.427734 137.686813,560.606628 
	C139.706085,558.471069 142.344559,558.183960 144.639557,557.290710 
	C146.899094,556.411377 147.055313,558.023499 147.073792,560.059814 
z"/>
<path fill="#5FE2E3" opacity="1.000000" stroke="none" 
	d="
M935.168701,637.130981 
	C931.707520,636.507629 930.656860,634.503296 931.037598,631.639771 
	C931.266663,629.916809 930.985535,627.350525 933.205933,627.192444 
	C935.573059,627.023926 938.267334,627.548462 940.357117,628.647888 
	C941.966003,629.494202 940.604858,631.642761 940.336914,633.216187 
	C939.877869,635.911682 938.429321,637.370544 935.168701,637.130981 
z"/>
<path fill="#6AE4D7" opacity="1.000000" stroke="none" 
	d="
M933.168884,464.221497 
	C930.872498,464.363312 929.489014,469.418335 927.177673,465.274200 
	C926.544373,464.138672 925.264038,461.231201 926.742615,460.930603 
	C929.437805,460.382660 932.581238,460.873840 935.222229,461.815765 
	C936.236816,462.177643 934.094971,463.224304 933.168884,464.221497 
z"/>
<path fill="#62E3DF" opacity="1.000000" stroke="none" 
	d="
M926.909851,662.926880 
	C923.693420,660.263977 924.887573,657.356750 925.762817,654.527344 
	C926.422607,652.394531 928.045776,652.960938 929.401611,653.558350 
	C931.344177,654.414307 934.450562,653.464783 934.957031,656.630798 
	C935.683960,661.175537 932.025269,664.171631 926.909851,662.926880 
z"/>
<path fill="#62E3DF" opacity="1.000000" stroke="none" 
	d="
M145.117371,478.923645 
	C140.946518,475.800110 143.450729,472.782898 145.355759,470.494446 
	C147.222870,468.251526 150.238174,468.993408 151.960373,471.029572 
	C154.150726,473.619263 153.515442,476.999298 151.632736,479.321930 
	C150.121719,481.185974 147.619019,478.922028 145.117371,478.923645 
z"/>
<path fill="#5FE2E3" opacity="1.000000" stroke="none" 
	d="
M150.844818,452.162018 
	C147.432861,448.682098 149.723480,445.930969 151.957016,443.811279 
	C153.898102,441.969208 156.567184,442.919861 158.123474,444.829315 
	C160.338120,447.546570 159.368866,450.955719 157.584091,453.087952 
	C156.086838,454.876617 153.406448,452.596893 150.844818,452.162018 
z"/>
<path fill="#838383" opacity="1.000000" stroke="none" 
	d="
M977.794556,199.273483 
	C978.770935,199.133667 979.519775,199.219772 980.355408,199.676178 
	C978.859131,201.743210 976.958740,201.008026 974.374512,200.811737 
	C975.877686,200.193848 976.722412,199.846619 977.794556,199.273483 
z"/>
<path fill="#FEFEFE" opacity="1.000000" stroke="none" 
	d="
M582.000000,525.929077 
	C610.162415,525.930359 637.828552,526.182800 665.485046,525.779907 
	C673.762207,525.659363 679.584229,531.159729 679.673279,538.552429 
	C679.875305,555.345642 680.994751,572.186890 679.032166,588.941895 
	C678.237244,595.728394 673.117493,600.001160 666.468079,600.002991 
	C582.814209,600.026062 499.160309,600.028748 415.506439,600.000122 
	C407.892365,599.997498 402.385284,594.383911 402.193878,585.524048 
	C401.862885,570.200439 401.853516,554.858765 402.198151,539.535706 
	C402.404510,530.359985 407.655457,525.937744 417.025299,525.936157 
	C471.850189,525.926636 526.675110,525.930054 582.000000,525.929077 
z"/>
<path fill="#FEFEFE" opacity="1.000000" stroke="none" 
	d="
M587.000000,698.025879 
	C530.341919,698.025513 474.182526,697.829468 418.027100,698.211243 
	C408.315613,698.277222 402.232178,691.820068 402.134796,683.045654 
	C401.968414,668.049805 401.912292,653.047852 402.154999,638.054077 
	C402.308197,628.590088 407.482117,623.936707 417.005463,623.935913 
	C499.659454,623.928894 582.313477,623.928650 664.967468,623.936157 
	C674.678345,623.937012 679.754822,628.743286 679.868652,638.527405 
	C680.035400,652.856567 680.023560,667.190369 679.875610,681.519958 
	C679.766968,692.030945 674.408752,698.483154 662.984192,698.211304 
	C637.835571,697.612793 612.662842,698.025696 587.000000,698.025879 
z"/>
<path fill="#FDFCFF" opacity="1.000000" stroke="none" 
	d="
M397.242279,346.544373 
	C397.095306,333.475067 397.159698,320.848145 396.984253,308.224579 
	C396.938019,304.895599 398.143341,303.860077 401.339844,304.011536 
	C409.064362,304.377533 416.938904,303.026642 424.244537,307.035217 
	C432.006073,311.293945 435.889923,320.975250 433.821533,331.765930 
	C432.204620,340.200989 425.319061,347.319183 416.961243,347.764832 
	C410.474548,348.110748 403.806213,349.249146 397.242279,346.544373 
z"/>
<path fill="#FEFDFF" opacity="1.000000" stroke="none" 
	d="
M492.022827,327.024414 
	C492.639893,324.528687 493.430084,322.471680 493.702759,320.348206 
	C494.173523,316.682465 495.492157,314.837921 499.729065,314.886230 
	C503.866638,314.933411 504.620026,317.043152 505.303101,320.292206 
	C506.356384,325.302277 507.833832,330.223236 509.902496,335.212891 
	C511.247803,329.636292 512.552490,324.049469 513.955200,318.487335 
	C514.679810,315.613983 520.372192,313.628815 522.810181,315.278595 
	C523.989929,316.076965 523.365234,317.019196 523.124329,317.920197 
	C520.764099,326.746490 518.275024,335.540405 516.071899,344.405487 
	C515.201843,347.906555 512.949036,348.011963 510.081970,348.077606 
	C507.122070,348.145355 504.994232,347.792297 504.191772,344.366150 
	C502.982971,339.205078 501.418701,334.127228 499.734528,328.033600 
	C497.093994,333.785126 496.219788,339.079651 494.894531,344.188171 
	C493.946106,347.844086 491.686157,348.055328 488.616425,348.089111 
	C485.532867,348.123047 483.688599,347.417480 482.853485,344.109344 
	C480.780334,335.896637 478.295288,327.787781 476.231567,319.572937 
	C475.905090,318.273376 473.850250,315.509827 476.979218,315.271454 
	C479.672058,315.066315 483.708405,313.090240 484.931000,317.798279 
	C486.500702,323.843048 487.812958,329.954651 489.326263,336.422852 
	C491.253876,333.379517 490.877991,330.198486 492.022827,327.024414 
z"/>
<path fill="#FDFBFF" opacity="1.000000" stroke="none" 
	d="
M653.105957,325.704163 
	C657.630615,314.453857 665.177368,311.907043 675.084961,318.825928 
	C675.084961,314.912140 675.215454,311.567535 675.050720,308.237457 
	C674.859680,304.373047 677.132751,303.994049 680.160095,304.008026 
	C683.036682,304.021362 684.985352,304.512421 684.958191,308.048157 
	C684.865295,320.191772 684.932922,332.336548 684.906982,344.480804 
	C684.904236,345.753418 685.213684,347.587433 683.455200,347.732819 
	C680.764526,347.955261 677.525757,349.294647 675.500854,346.868134 
	C674.084656,345.171204 673.493286,345.259521 672.095764,346.452667 
	C664.690247,352.775330 653.591980,344.980103 653.036682,336.102966 
	C652.829468,332.790497 653.032410,329.452393 653.105957,325.704163 
z"/>
<path fill="#FEFDFF" opacity="1.000000" stroke="none" 
	d="
M639.878479,403.140137 
	C639.448608,409.334106 638.167603,414.726288 633.080139,418.360779 
	C628.262939,421.802094 623.687561,421.343414 616.949585,416.205658 
	C616.949585,420.634857 616.794006,424.489655 616.996704,428.325439 
	C617.172363,431.647217 615.455627,432.168701 612.708008,432.092560 
	C610.070435,432.019470 607.818359,432.226562 607.871765,428.358704 
	C608.036987,416.398010 607.870056,404.432953 607.987549,392.471100 
	C608.007202,390.475555 606.624695,387.350555 610.470520,387.110168 
	C613.539429,386.918335 617.174255,386.098419 617.149658,391.786743 
	C620.903259,386.686676 625.395569,386.072021 630.408264,387.670471 
	C635.590210,389.322876 637.865906,393.388672 638.988220,398.335297 
	C639.317810,399.787903 639.571411,401.257721 639.878479,403.140137 
z"/>
<path fill="#FEFDFF" opacity="1.000000" stroke="none" 
	d="
M601.879822,404.808136 
	C600.948120,410.174530 599.803284,414.953613 595.352356,418.181641 
	C590.455872,421.732849 586.175171,421.454742 578.952087,416.423309 
	C578.952087,420.399994 578.769043,423.964294 579.004456,427.500763 
	C579.231934,430.918182 578.108276,432.212921 574.534119,432.153107 
	C571.220459,432.097656 569.796753,431.332794 569.856262,427.686432 
	C570.051514,415.726379 569.901367,403.761017 569.956543,391.798035 
	C569.965698,389.818359 569.127563,387.102936 572.642273,387.076813 
	C575.545837,387.055206 579.054688,386.113647 579.071716,391.622314 
	C583.113464,386.640686 587.865479,385.855652 593.035950,387.907745 
	C598.180176,389.949432 600.459045,394.202240 601.113953,399.499268 
	C601.316406,401.136505 601.633484,402.759583 601.879822,404.808136 
z"/>
<path fill="#FEFDFF" opacity="1.000000" stroke="none" 
	d="
M472.139191,419.993408 
	C468.962860,420.069977 468.964142,418.186920 468.969116,416.261932 
	C468.981628,411.431244 469.028290,406.599548 468.951691,401.769989 
	C468.871796,396.735535 466.723114,394.068909 462.818085,394.408051 
	C458.577942,394.776337 456.863251,397.449646 456.935272,401.586121 
	C457.022247,406.581818 456.808014,411.585571 456.992218,416.575897 
	C457.126801,420.221344 454.849335,420.005402 452.413269,420.025116 
	C449.919434,420.045258 447.840790,420.099487 447.881531,416.514404 
	C448.021637,404.189331 447.999939,391.861115 447.890228,379.535431 
	C447.862701,376.445007 449.432068,375.993134 451.951996,376.025024 
	C454.363403,376.055511 456.233826,376.237488 456.114227,379.431396 
	C455.958923,383.578430 456.076324,387.735687 456.076324,392.826141 
	C458.982422,389.642303 461.309082,387.017029 465.350983,386.934143 
	C473.012665,386.777100 477.721558,390.817505 477.953094,398.471710 
	C478.114227,403.797455 477.722900,409.150177 478.084808,414.456299 
	C478.380219,418.787231 477.110260,420.806183 472.139191,419.993408 
z"/>
<path fill="#FDFCFF" opacity="1.000000" stroke="none" 
	d="
M544.286743,395.226074 
	C541.205444,397.783966 537.105164,398.232788 535.653259,395.775452 
	C534.113037,393.168579 537.462830,390.478241 540.096558,389.004913 
	C545.939758,385.736145 552.042419,386.080688 557.772461,389.059540 
	C562.755798,391.650116 563.105042,396.630554 562.969849,401.648865 
	C562.848755,406.141968 563.036499,410.643768 562.898376,415.135895 
	C562.843933,416.905182 563.938232,419.671356 560.840393,419.853485 
	C558.046631,420.017700 554.303833,421.659088 553.490051,416.410004 
	C549.641418,420.043793 545.761597,421.757202 540.615845,420.201965 
	C535.689331,418.712952 533.393250,415.423004 533.195312,410.794647 
	C533.003723,406.311951 535.827454,403.321777 539.956482,401.959991 
	C542.766113,401.033386 545.757385,400.587738 548.701477,400.161804 
	C550.960571,399.835022 553.326843,399.725922 552.927307,396.609772 
	C552.538025,393.573853 550.002197,393.971588 547.858337,393.939331 
	C546.670288,393.921509 545.534119,394.121368 544.286743,395.226074 
z"/>
<path fill="#FDFCFF" opacity="1.000000" stroke="none" 
	d="
M511.722046,416.642578 
	C500.661713,423.770111 489.381195,421.234497 484.985199,410.966217 
	C482.261932,404.605072 483.928131,395.408173 488.612885,390.942566 
	C493.235718,386.535919 500.880280,385.451874 506.763947,388.368652 
	C512.181335,391.054260 515.249451,396.595245 515.061523,402.637268 
	C514.978455,405.307465 513.909241,406.086792 511.428741,406.033234 
	C506.433838,405.925323 501.434601,405.980652 496.437744,406.028687 
	C495.338593,406.039246 493.983917,405.664093 493.343109,407.018646 
	C492.686188,408.407349 493.339813,409.566040 494.180511,410.682892 
	C496.616669,413.919312 500.868652,414.753510 504.407013,412.604034 
	C504.960358,412.267883 505.385468,411.720581 505.869934,411.270966 
	C508.186890,409.121002 511.279083,409.346527 513.205444,410.781036 
	C515.404724,412.418823 513.067505,414.593872 511.722046,416.642578 
z"/>
<path fill="#FEFDFF" opacity="1.000000" stroke="none" 
	d="
M645.669312,347.776184 
	C642.733337,347.254181 639.183167,350.036591 637.789429,345.403687 
	C637.423462,344.187378 636.644226,345.809479 636.129333,346.164246 
	C632.143250,348.910889 627.986633,349.642151 623.408142,347.686829 
	C619.375732,345.964630 617.807373,343.113068 617.823975,338.686279 
	C617.840332,334.332581 619.663391,331.558716 623.525574,330.361694 
	C627.144958,329.239838 630.955261,328.709259 634.702698,328.036407 
	C636.309937,327.747833 637.770325,327.337952 637.762512,325.446991 
	C637.755615,323.784576 636.624023,322.544617 635.084900,322.222443 
	C632.832947,321.751038 630.445312,321.331726 628.500061,323.243042 
	C628.028809,323.706055 627.621643,324.466919 627.076965,324.582794 
	C624.512329,325.128235 621.194824,326.110840 619.643127,323.984253 
	C618.167664,321.962189 620.617554,319.682190 622.397644,318.255585 
	C628.100586,313.685211 634.486633,314.085175 640.813232,316.508362 
	C646.458435,318.670654 647.310181,323.638611 646.968933,328.913330 
	C646.565186,335.152374 648.027588,341.478210 645.669312,347.776184 
z"/>
<path fill="#FEFDFF" opacity="1.000000" stroke="none" 
	d="
M594.424011,315.023987 
	C611.106079,313.684845 615.626404,326.874115 612.119812,338.361328 
	C609.481079,347.005829 600.686584,350.625458 591.399231,347.883118 
	C583.839172,345.650787 579.249268,336.292999 581.363281,327.474884 
	C582.989380,320.692322 586.908875,316.265869 594.424011,315.023987 
z"/>
<path fill="#FEFDFF" opacity="1.000000" stroke="none" 
	d="
M441.298157,340.299316 
	C437.903107,329.588867 440.206726,320.943390 447.271851,316.888214 
	C454.903748,312.507751 465.111572,315.055634 469.645813,322.472870 
	C474.074188,329.716949 471.838135,341.560577 465.227875,345.873627 
	C456.805511,351.369019 447.226593,349.267822 441.298157,340.299316 
z"/>
<path fill="#FEFDFF" opacity="1.000000" stroke="none" 
	d="
M538.090942,319.646149 
	C541.742493,314.608337 546.629883,313.951538 551.666077,315.557678 
	C556.955811,317.244629 558.676819,321.952087 558.901062,327.019287 
	C559.158325,332.831512 558.820862,338.668640 559.018738,344.485535 
	C559.139709,348.041382 557.063538,348.083038 554.535278,348.025085 
	C552.154236,347.970520 549.772827,348.320312 549.910767,344.634369 
	C550.084900,339.982178 550.004822,335.317291 549.927734,330.659668 
	C549.839172,325.309540 547.841003,322.953644 543.646301,322.903137 
	C538.362061,322.839508 537.966919,326.444275 537.958374,330.362244 
	C537.948181,335.021118 537.796936,339.686859 538.002686,344.336548 
	C538.152771,347.728180 536.353638,348.095764 533.662170,348.049011 
	C530.984558,348.002472 528.771851,348.121216 528.867065,344.274231 
	C529.072754,335.959930 528.945984,327.636932 528.918457,319.317627 
	C528.910950,317.034943 528.831421,314.986084 532.133301,314.994843 
	C535.069702,315.002625 537.625183,314.981110 537.083252,319.051971 
	C537.022461,319.508331 537.165833,320.033264 538.090942,319.646149 
z"/>
<path fill="#FDFCFF" opacity="1.000000" stroke="none" 
	d="
M425.513977,386.336121 
	C426.047791,382.167908 425.829712,378.175507 431.865875,378.970490 
	C434.789398,379.355530 436.154846,380.284180 435.941803,383.229889 
	C435.778625,385.486176 436.212860,387.249512 439.080231,387.046692 
	C441.686066,386.862366 441.964905,388.526642 441.994110,390.586090 
	C442.024872,392.758728 441.466309,394.182007 438.962921,394.016541 
	C436.476746,393.852203 435.875275,395.272186 435.927460,397.447144 
	C436.007202,400.770081 435.979279,404.097015 435.931244,407.421265 
	C435.891388,410.182007 435.769531,412.700073 439.619110,413.239899 
	C441.754028,413.539246 441.838104,415.858917 441.957001,417.692230 
	C442.114105,420.114349 440.053101,420.180450 438.568481,420.547211 
	C433.215302,421.869568 428.299225,418.661407 426.833099,413.256775 
	C425.496155,408.328430 426.402130,403.332550 426.080566,398.379364 
	C425.970276,396.680237 426.722870,394.493164 424.017761,394.025391 
	C421.600708,393.607361 422.176331,391.724701 421.988342,390.140686 
	C421.690552,387.631561 423.356323,387.068695 425.513977,386.336121 
z"/>
<path fill="#FEFEFF" opacity="1.000000" stroke="none" 
	d="
M567.389893,304.278381 
	C574.996277,303.959045 574.998413,303.959045 574.999512,310.807129 
	C575.001221,321.604614 574.868347,332.404602 575.073608,343.198181 
	C575.142212,346.806213 574.229858,348.191437 570.376038,348.125916 
	C566.820740,348.065460 565.865967,346.864319 565.915283,343.468506 
	C566.083984,331.842896 565.965332,320.213287 565.998779,308.585327 
	C566.002930,307.148407 565.573547,305.550140 567.389893,304.278381 
z"/>
<path fill="#FDFCFF" opacity="1.000000" stroke="none" 
	d="
M647.035950,386.025208 
	C647.024719,384.040619 647.196716,382.518494 646.973389,381.056854 
	C646.287109,376.566162 648.589478,375.766418 652.438171,375.980896 
	C655.532288,376.153320 656.613098,376.697693 656.315735,380.348785 
	C655.710999,387.775909 655.959839,395.278412 656.000122,402.749084 
	C656.014709,405.451355 655.603638,407.100769 652.257629,407.091888 
	C649.095947,407.083496 648.093872,406.160126 647.813477,402.880219 
	C647.346985,397.423523 647.004150,391.985260 647.035950,386.025208 
z"/>
<path fill="#FDFBFF" opacity="1.000000" stroke="none" 
	d="
M648.962891,419.868774 
	C646.193542,417.370422 646.274414,414.592438 647.894470,412.107300 
	C648.964478,410.465973 650.950317,409.636505 653.140137,410.605438 
	C655.833862,411.797394 657.806824,413.727478 656.720154,416.727844 
	C655.528870,420.017029 653.014771,421.715240 648.962891,419.868774 
z"/>
<path fill="#171717" opacity="1.000000" stroke="none" 
	d="
M590.720154,571.794678 
	C587.520874,567.593079 584.693298,563.541687 581.519775,558.994690 
	C580.323181,563.593628 581.898987,568.020081 580.507568,572.023560 
	C579.970337,572.017029 579.433167,572.010498 578.895935,572.003967 
	C578.895935,566.563416 578.434753,561.066040 579.096069,555.707092 
	C579.413147,553.137573 581.276733,555.120056 582.073730,556.206909 
	C584.575806,559.619263 586.980591,563.102905 590.623596,566.392029 
	C590.623596,562.488892 590.623596,558.585815 590.623596,554.682739 
	C591.360413,554.669678 592.097290,554.656616 592.834106,554.643555 
	C592.834106,560.021118 592.846497,565.398804 592.824158,570.776245 
	C592.819397,571.923218 591.948120,571.966125 590.720154,571.794678 
z"/>
<path fill="#1C1C1C" opacity="1.000000" stroke="none" 
	d="
M527.547913,565.191040 
	C523.186890,565.244568 525.530029,568.297546 524.913757,569.934387 
	C524.651489,570.630981 525.131958,571.750488 523.962769,571.886414 
	C522.423523,572.065491 522.613403,570.818176 522.605103,569.893860 
	C522.573669,566.418640 522.464294,562.936340 522.645569,559.470398 
	C522.731140,557.834351 521.499451,555.261963 523.795410,554.733948 
	C526.612549,554.086060 529.771912,553.918091 532.436890,555.687561 
	C534.525146,557.074097 535.336487,559.972595 534.031921,561.343689 
	C530.253723,565.314575 533.473938,568.319519 535.071411,571.978943 
	C530.141907,571.835022 531.286377,566.216858 527.547913,565.191040 
z"/>
<path fill="#2A2A2A" opacity="1.000000" stroke="none" 
	d="
M475.806824,559.598022 
	C477.513702,562.343689 480.376434,561.928162 482.519714,563.068665 
	C484.668793,564.212280 485.865112,565.815796 485.268250,568.300415 
	C484.433777,571.774536 481.706238,572.300354 478.713257,572.287903 
	C476.203278,572.277466 474.151184,571.419739 473.145996,568.943115 
	C473.009369,568.606445 473.225769,567.915344 473.515411,567.681213 
	C473.762848,567.481262 474.481415,567.541565 474.761047,567.769531 
	C475.393311,568.284973 475.768219,569.280823 476.452118,569.537964 
	C478.679230,570.375366 481.343536,570.998230 482.677185,568.503357 
	C484.285339,565.494934 481.318207,565.088928 479.438080,564.262207 
	C479.140167,564.131165 478.785278,564.136169 478.472382,564.031616 
	C475.909637,563.174866 473.127136,562.314148 473.308197,558.933350 
	C473.465179,556.002075 475.687744,554.581299 478.352448,554.311584 
	C481.529327,553.990173 484.231750,554.866882 485.214203,558.957214 
	C481.849426,558.494873 478.358032,552.772766 475.806824,559.598022 
z"/>
<path fill="#1C1C1C" opacity="1.000000" stroke="none" 
	d="
M507.510437,555.318054 
	C511.459320,553.512451 514.767090,553.935852 517.190430,557.195312 
	C519.821838,560.734680 519.805908,564.686279 517.801208,568.498657 
	C516.118835,571.697998 513.186523,572.660034 509.733276,572.059387 
	C506.785614,571.546753 504.893402,569.532776 504.237427,566.861084 
	C503.212097,562.684998 503.258423,558.530701 507.510437,555.318054 
z"/>
<path fill="#111111" opacity="1.000000" stroke="none" 
	d="
M607.668091,556.878662 
	C602.498352,562.407288 602.525513,562.386963 606.810181,568.110840 
	C607.641541,569.221375 609.004944,570.072388 609.031982,572.017944 
	C605.839722,571.908020 605.411743,568.890503 603.709229,567.385498 
	C602.698730,566.492310 602.524658,564.161011 600.554443,564.915771 
	C598.973999,565.521301 599.017273,567.247620 598.993286,568.795898 
	C598.976746,569.862549 599.555420,571.152466 597.569397,572.386780 
	C597.569397,566.231262 597.569397,560.467285 597.569397,554.161865 
	C600.322021,556.692627 598.230164,559.744019 599.512207,562.733093 
	C601.807678,560.208557 603.952881,557.803162 606.156677,555.452698 
	C606.852722,554.710327 607.769287,554.125854 608.693542,555.050110 
	C608.829834,555.186462 608.193115,556.095642 607.668091,556.878662 
z"/>
<path fill="#0F0F0F" opacity="1.000000" stroke="none" 
	d="
M544.581299,556.414429 
	C542.111206,556.481628 539.907471,555.660706 539.900696,559.342163 
	C539.893738,563.136780 542.253784,561.988708 544.175720,562.202332 
	C545.383667,562.336670 546.833801,561.634338 547.993347,563.440979 
	C546.541443,564.534546 544.884766,564.214478 543.429321,564.101257 
	C540.968079,563.909973 539.921753,564.501343 539.914795,567.305054 
	C539.907837,570.110229 541.257690,570.115601 543.277588,570.076050 
	C544.998352,570.042358 546.838562,569.645264 549.244324,571.003174 
	C545.511780,572.776306 542.281982,571.765381 539.209717,571.964661 
	C537.748779,572.059387 537.900208,570.804077 537.895020,569.830139 
	C537.882629,567.500916 537.888550,565.171570 537.888550,562.842285 
	C537.888733,553.194885 537.888977,553.194885 547.971069,555.140808 
	C547.735840,557.283386 546.060547,556.102539 544.581299,556.414429 
z"/>
<path fill="#515151" opacity="1.000000" stroke="none" 
	d="
M495.838501,566.814575 
	C495.829895,568.275024 495.830566,569.266296 495.810028,570.257141 
	C495.791840,571.136597 495.543121,571.982300 494.535889,572.029114 
	C493.131989,572.094360 493.083221,570.979858 493.075836,569.972656 
	C493.055237,567.164185 493.031189,564.354980 493.070923,561.546997 
	C493.108246,558.906067 493.626495,555.988342 489.331635,556.619019 
	C488.658417,556.717896 487.993835,556.268066 487.949371,555.526978 
	C487.904388,554.776733 488.497345,554.331604 489.209686,554.324219 
	C492.677826,554.288208 496.146515,554.292175 499.614899,554.307922 
	C500.325500,554.311157 500.954773,554.669739 500.990448,555.403870 
	C501.007416,555.752625 500.481445,556.456543 500.236115,556.441345 
	C493.873779,556.046326 496.240265,560.785278 495.853912,563.868958 
	C495.752014,564.682190 495.838531,565.519165 495.838501,566.814575 
z"/>
<path fill="#222222" opacity="1.000000" stroke="none" 
	d="
M572.593872,556.094299 
	C573.986389,553.727783 574.809814,554.494263 574.859436,556.334351 
	C574.985046,560.993835 574.903015,565.659058 574.888306,570.322021 
	C574.885620,571.177490 574.783325,572.096619 573.594116,571.924133 
	C572.487427,571.763611 572.587830,570.784119 572.584778,569.986694 
	C572.567566,565.490356 572.575623,560.993774 572.593872,556.094299 
z"/>
<path fill="#0F0F0F" opacity="1.000000" stroke="none" 
	d="
M561.534790,569.478271 
	C564.199097,570.513000 566.918030,569.333191 569.134644,572.007629 
	C566.288757,572.007629 563.442810,572.006592 560.596924,572.008423 
	C559.880249,572.008850 559.126770,571.752930 559.118774,571.032776 
	C559.057861,565.568604 559.085449,560.103455 559.085449,554.638611 
	C559.807251,554.645386 560.529053,554.652161 561.250854,554.658997 
	C561.250854,559.476562 561.250854,564.294128 561.534790,569.478271 
z"/>
<path fill="#171717" opacity="1.000000" stroke="none" 
	d="
M587.095947,664.985962 
	C585.211121,662.280701 583.519226,659.883606 581.038696,656.369080 
	C581.038696,660.964172 581.066833,664.340698 581.019470,667.716187 
	C581.007202,668.592712 581.427185,669.936157 579.867310,669.905884 
	C578.719849,669.883789 578.890442,668.788452 578.885986,668.022827 
	C578.859985,663.538635 578.872498,659.054199 578.868469,654.569885 
	C578.867676,653.733032 578.824341,652.799133 579.898254,652.637268 
	C580.807129,652.500305 581.407410,653.167908 581.895447,653.860657 
	C584.416321,657.438843 586.930786,661.021423 589.867981,665.200867 
	C591.498413,660.585205 589.658508,656.347900 591.276245,652.636719 
	C591.785583,652.626099 592.294983,652.615479 592.804321,652.604858 
	C592.804321,658.042419 592.951050,663.486328 592.718079,668.913879 
	C592.644836,670.621155 591.040466,670.262939 590.190857,669.328491 
	C589.083740,668.110840 588.243835,666.650269 587.095947,664.985962 
z"/>
<path fill="#1C1C1C" opacity="1.000000" stroke="none" 
	d="
M522.590088,657.374756 
	C522.991638,655.471069 521.532288,653.032471 523.855652,652.693542 
	C526.894226,652.250244 530.235168,651.758728 532.917175,654.092407 
	C534.636658,655.588562 534.663696,657.658020 534.116272,659.642517 
	C532.612610,665.093811 532.562866,665.080078 534.856567,669.598999 
	C531.781494,670.940613 531.844421,668.000366 530.831909,666.642578 
	C529.708130,665.135742 529.412781,662.748474 526.642639,663.172485 
	C523.575073,663.641907 525.369324,666.003052 524.911499,667.475220 
	C524.646057,668.328857 525.322021,669.776428 523.905029,669.867004 
	C521.985352,669.989868 522.649414,668.296936 522.622925,667.316162 
	C522.537537,664.154480 522.590454,660.988953 522.590088,657.374756 
z"/>
<path fill="#2A2A2A" opacity="1.000000" stroke="none" 
	d="
M473.393433,656.294739 
	C476.497986,651.730408 480.864410,650.909485 483.892303,653.996155 
	C484.596741,654.714233 485.506714,655.695068 484.846863,656.540344 
	C483.977020,657.654663 483.230408,656.621399 482.519714,655.865112 
	C481.975616,655.286072 481.224945,654.765808 480.470978,654.545959 
	C478.553467,653.987000 476.630310,654.286804 475.878601,656.301636 
	C475.100800,658.386536 476.859192,659.183838 478.465515,659.789612 
	C479.081512,660.021790 479.767822,660.064270 480.389557,660.284973 
	C483.128235,661.256775 485.909271,662.280640 485.316559,666.038208 
	C484.847321,669.013123 482.705994,670.098938 479.966217,670.240540 
	C476.671326,670.410828 473.747375,669.936401 472.992950,665.689270 
	C475.419067,664.929199 475.580414,667.664429 477.123047,667.883484 
	C479.279755,668.189697 481.768646,668.780396 482.833527,666.295837 
	C484.002380,663.568542 481.489014,662.971985 479.647675,662.349548 
	C476.677643,661.345398 473.270142,660.934143 473.393433,656.294739 
z"/>
<path fill="#1C1C1C" opacity="1.000000" stroke="none" 
	d="
M513.474487,669.997009 
	C505.270172,670.116516 501.174896,663.427979 504.729828,656.453979 
	C506.257965,653.456116 508.777100,652.005798 512.036011,652.275818 
	C515.574280,652.568909 517.725586,654.843079 518.742981,658.125427 
	C520.245239,662.972046 518.616516,666.801086 513.474487,669.997009 
z"/>
<path fill="#111111" opacity="1.000000" stroke="none" 
	d="
M596.883911,657.337341 
	C597.113464,655.480835 596.329163,653.910278 597.564270,652.650024 
	C598.925293,654.506653 598.925293,654.506653 599.192871,660.434387 
	C602.989929,658.577332 604.076538,653.413879 609.555908,652.812988 
	C599.871704,658.722778 604.102173,664.144592 609.902283,669.579651 
	C605.998169,670.485168 605.729675,667.368042 604.206055,666.026978 
	C603.028992,664.990967 602.656738,662.516968 600.871765,662.865540 
	C598.623779,663.304565 599.090271,665.646057 599.006348,667.441284 
	C598.964905,668.327942 599.495728,669.495728 596.883911,670.341125 
	C596.883911,665.961365 596.883911,661.877319 596.883911,657.337341 
z"/>
<path fill="#0F0F0F" opacity="1.000000" stroke="none" 
	d="
M537.888550,661.041260 
	C537.891113,651.639954 538.652527,651.057068 547.837769,652.964905 
	C547.954590,652.989197 548.027161,653.226074 548.178101,653.448853 
	C547.033325,655.218994 545.235779,654.247009 543.765015,654.371277 
	C541.833557,654.534363 539.950134,653.903748 539.898315,657.192505 
	C539.849182,660.310547 541.356140,660.273193 543.526428,660.216858 
	C544.932312,660.180359 546.457031,659.837646 548.116333,661.027893 
	C546.700806,662.661804 545.005432,662.144592 543.586609,662.104187 
	C541.362854,662.040955 539.984863,662.131836 539.896240,665.137512 
	C539.799683,668.415039 541.581238,667.996948 543.606445,668.073547 
	C545.250488,668.135681 547.141663,667.440674 549.660767,670.008545 
	C545.432434,670.008545 542.411377,670.018311 539.390442,670.005005 
	C537.552246,669.996948 537.920410,668.598938 537.900269,667.512390 
	C537.863159,665.518005 537.888916,663.522400 537.888550,661.041260 
z"/>
<path fill="#515151" opacity="1.000000" stroke="none" 
	d="
M495.838501,660.064941 
	C495.836548,662.876465 495.860657,665.209778 495.821350,667.542053 
	C495.802551,668.655029 496.030731,670.134277 494.247650,669.982727 
	C492.882721,669.866760 493.096863,668.594604 493.076202,667.641907 
	C493.040100,665.976318 493.103729,664.308167 493.053192,662.643311 
	C492.934204,658.722412 494.814911,653.650024 487.456726,653.401917 
	C492.291931,651.958740 496.665894,652.000366 501.236633,653.278320 
	C498.348358,654.710083 494.408997,654.850525 495.838501,660.064941 
z"/>
<path fill="#222222" opacity="1.000000" stroke="none" 
	d="
M572.571167,661.988159 
	C572.918945,658.553650 571.753052,655.389526 573.387634,652.582031 
	C573.882996,652.568115 574.378357,652.554199 574.873718,652.540283 
	C574.873718,657.992004 574.889587,663.443848 574.855164,668.895325 
	C574.850403,669.643921 574.312012,670.055115 573.529419,669.914246 
	C572.706726,669.766174 572.606079,669.091003 572.598145,668.425659 
	C572.574280,666.434387 572.578064,664.442810 572.571167,661.988159 
z"/>
<path fill="#0F0F0F" opacity="1.000000" stroke="none" 
	d="
M559.407532,669.561218 
	C559.091309,663.699707 559.091309,658.192322 559.091309,652.684937 
	C559.553894,652.677185 560.016479,652.669495 560.479126,652.661743 
	C562.042419,655.751770 561.285156,659.225098 561.068848,662.418152 
	C560.767090,666.872864 562.005981,668.898071 566.689270,668.084412 
	C567.507324,667.942322 568.741394,667.630981 569.344177,669.915344 
	C566.000244,669.915344 562.862000,669.915344 559.407532,669.561218 
z"/>
<path fill="#D5B8FF" opacity="1.000000" stroke="none" 
	d="
M410.999664,339.999756 
	C408.144501,340.198792 406.850494,339.389374 406.891388,336.673370 
	C406.998871,329.534241 406.971069,322.392029 406.905426,315.251892 
	C406.883759,312.897858 407.910614,312.164581 410.187775,312.008545 
	C418.695923,311.425385 424.603943,316.589478 424.966705,325.149872 
	C425.395447,335.267181 421.208801,339.865906 410.999664,339.999756 
z"/>
<path fill="#D5B8FF" opacity="1.000000" stroke="none" 
	d="
M662.005432,331.981567 
	C662.680969,324.880890 665.463806,321.492340 669.747498,322.135956 
	C673.987549,322.773010 676.856140,328.855408 675.400635,334.226044 
	C674.412231,337.873413 673.239685,341.475281 668.352905,340.992676 
	C663.154602,340.479340 662.347656,336.576996 662.005432,331.981567 
z"/>
<path fill="#D5B8FF" opacity="1.000000" stroke="none" 
	d="
M629.478394,399.015808 
	C630.203735,402.527435 630.295471,405.609375 629.288757,408.728119 
	C628.342590,411.659271 626.628052,413.054840 623.469971,413.087433 
	C620.283875,413.120270 618.360657,411.575958 617.502747,408.802551 
	C616.455688,405.417755 616.558289,401.872925 617.419678,398.464966 
	C618.095520,395.791199 620.160095,394.331757 622.890381,394.078156 
	C626.274902,393.763885 627.975708,395.986084 629.478394,399.015808 
z"/>
<path fill="#D5B8FF" opacity="1.000000" stroke="none" 
	d="
M580.325195,396.570892 
	C586.369751,392.353821 591.424438,394.662872 591.968262,401.551300 
	C592.149353,403.845947 592.111572,406.141296 591.407776,408.457703 
	C590.362122,411.899414 588.286621,413.273285 584.759766,413.060730 
	C581.242554,412.848724 579.601501,410.551971 579.197754,407.652740 
	C578.701172,404.087036 578.214905,400.348724 580.325195,396.570892 
z"/>
<path fill="#D5B8FF" opacity="1.000000" stroke="none" 
	d="
M552.080322,405.511719 
	C554.441101,408.300476 554.025085,411.214478 551.055664,412.900269 
	C548.159973,414.544159 545.024353,415.113007 542.661560,412.006653 
	C541.214233,410.103912 542.632263,408.638672 544.153992,407.472961 
	C546.395325,405.756042 549.195679,406.240112 552.080322,405.511719 
z"/>
<path fill="#D5B8FF" opacity="1.000000" stroke="none" 
	d="
M493.412231,398.469727 
	C496.111633,393.908081 500.959259,392.572937 504.096954,395.194092 
	C505.130035,396.057098 506.001526,397.166565 505.784607,398.568604 
	C505.496368,400.431366 503.811249,400.162384 502.634552,399.997742 
	C499.543915,399.565186 496.174805,401.317657 493.412231,398.469727 
z"/>
<path fill="#D5B8FF" opacity="1.000000" stroke="none" 
	d="
M633.075256,334.031616 
	C634.863098,334.332214 636.526855,332.452911 637.559204,333.995361 
	C638.635254,335.602966 637.874084,337.503540 636.937866,339.115936 
	C634.852844,342.707092 631.550049,342.692535 628.319885,341.468353 
	C625.520935,340.407593 625.440308,337.279724 628.067932,335.683746 
	C629.432007,334.855133 631.134583,334.583771 633.075256,334.031616 
z"/>
<path fill="#D5B8FF" opacity="1.000000" stroke="none" 
	d="
M593.160583,339.731903 
	C589.506042,335.049683 589.352783,330.332153 591.761719,325.483246 
	C593.963318,321.051544 598.718201,320.577606 601.895142,324.379700 
	C604.962402,328.050568 604.851318,336.408630 601.443481,339.727692 
	C599.012878,342.094879 596.184265,342.353424 593.160583,339.731903 
z"/>
<path fill="#D5B8FF" opacity="1.000000" stroke="none" 
	d="
M450.219299,325.471008 
	C451.959381,322.078491 454.686371,321.453217 457.589600,322.189758 
	C460.744324,322.990112 461.854431,325.706299 461.990997,328.681000 
	C462.118927,331.467346 462.536224,334.323120 461.461731,337.035889 
	C460.408905,339.693939 458.560547,341.743347 455.589844,341.550934 
	C452.864655,341.374481 450.637604,340.020020 449.780945,336.966400 
	C448.721039,333.188263 448.438416,329.511200 450.219299,325.471008 
z"/>
<path fill="#F7F7F7" opacity="1.000000" stroke="none" 
	d="
M527.711060,556.442505 
	C530.514648,556.619995 532.352783,557.363770 532.111938,560.280945 
	C531.881714,563.070740 529.844360,563.170349 527.796692,563.097107 
	C526.639771,563.055725 524.680786,563.704895 524.973389,561.570740 
	C525.224060,559.741760 523.029297,556.512878 527.711060,556.442505 
z"/>
<path fill="#F7F7F7" opacity="1.000000" stroke="none" 
	d="
M505.972778,564.686646 
	C505.744232,560.693298 506.330505,557.423523 510.456848,556.535706 
	C513.516724,555.877197 515.636475,557.544922 516.497070,560.417053 
	C517.575012,564.014160 517.319153,567.607361 513.661926,569.559570 
	C511.083130,570.936157 508.437439,570.213989 506.852142,567.404358 
	C506.455261,566.700928 506.280487,565.872253 505.972778,564.686646 
z"/>
<path fill="#F7F7F7" opacity="1.000000" stroke="none" 
	d="
M524.873901,658.196716 
	C524.744995,655.792847 524.813660,654.048340 527.609009,654.424438 
	C529.568848,654.688171 531.734497,654.563416 532.066345,657.260376 
	C532.319214,659.315247 531.709961,661.040588 529.328369,660.991821 
	C527.592346,660.956299 524.653992,662.586121 524.873901,658.196716 
z"/>
<path fill="#F7F7F7" opacity="1.000000" stroke="none" 
	d="
M507.513794,666.423279 
	C506.493103,664.997803 505.985199,663.815308 505.937744,662.420959 
	C505.825195,659.112549 506.057953,655.999695 509.840210,654.701660 
	C512.414612,653.818176 514.528503,654.741760 515.810852,656.942017 
	C517.631165,660.065308 517.660461,663.433044 515.301514,666.265442 
	C513.153503,668.844482 510.429626,668.739075 507.513794,666.423279 
z"/>
</svg>